<?xml version="1.0" encoding="UTF-8"?>
<svg width="173px" height="173px" viewBox="0 0 173 173" version="1.1" xmlns="http://www.w3.org/2000/svg" xmlns:xlink="http://www.w3.org/1999/xlink">
    <!-- Generator: Sketch 51.1 (57501) - http://www.bohemiancoding.com/sketch -->
    <title>XMLID_112_</title>
    <desc>Created with Sketch.</desc>
    <defs></defs>
    <g id="Page-1" stroke="none" stroke-width="1" fill="none" fill-rule="evenodd">
        <g id="XMLID_112_" fill-rule="nonzero">
            <path d="M81.4,26.2 L91.3,26.2 C92.4,26.2 93.3,25.3 93.3,24.2 C93.3,23.1 92.4,22.2 91.3,22.2 L81.4,22.2 L81.4,26.2 Z M81.4,35.7 L91.6,35.7 C92.8,35.7 93.9,34.7 93.9,33.4 C93.9,32.2 92.9,31.1 91.6,31.1 L81.4,31.1 L81.4,35.7 Z M97.3,28.5 C98.6,29.8 99.5,31.6 99.5,33.7 C99.5,37.7 96.3,40.9 92.3,40.9 L75.8,40.9 L75.8,17.1 L92,17.1 C95.8,17.1 98.9,20.2 98.9,24 C98.9,25.7 98.3,27.3 97.3,28.5 Z" id="XMLID_160_" fill="#002D4A"></path>
            <path d="M101.1,69.1 L95,69.1 L93.1,65.1 L79.8,65.1 L77.9,69.1 L71.8,69.1 L83.7,45.4 L89.2,45.4 L101.1,69.1 Z M86.5,51.4 L82.3,60 L90.6,60 L86.5,51.4 Z" id="XMLID_138_" fill="#002D4A"></path>
            <polygon id="XMLID_136_" fill="#002D4A" points="94.6 74.2 101.4 74.2 89.3 89.6 89.3 97.9 83.7 97.9 83.7 89.6 71.7 74.2 78.5 74.2 86.5 84.9"></polygon>
            <polygon id="XMLID_135_" fill="#002D4A" points="126 74.2 126 79.2 110.2 79.2 110.2 83.2 125.4 83.2 125.4 88.3 110.2 88.3 110.2 92.8 126 92.8 126 97.9 104.5 97.9 104.5 74.2"></polygon>
            <path d="M143.4,88.8 L139.2,88.8 L139.2,97.8 L133.6,97.8 L133.6,74.1 L148,74.1 C152,74.1 155.3,77.4 155.3,81.4 C155.3,84.7 153.1,87.6 150,88.4 L157,97.7 L150.2,97.7 L143.4,88.8 Z M147.4,79.2 L139.2,79.2 L139.2,83.7 L147.4,83.7 C148.6,83.7 149.6,82.7 149.6,81.4 C149.6,80.3 148.6,79.2 147.4,79.2 Z" id="XMLID_132_" fill="#002D4A"></path>
            <path d="M74.3,97.9 L68.2,97.9 L66.3,93.9 L53,93.9 L51.1,97.9 L45,97.9 L56.9,74.2 L62.4,74.2 L74.3,97.9 Z M59.7,80.2 L55.5,88.8 L63.8,88.8 L59.7,80.2 Z" id="XMLID_127_" fill="#002D4A"></path>
            <path d="M23.9,83.2 L33.8,83.2 C34.9,83.2 35.8,82.3 35.8,81.2 C35.8,80.1 34.9,79.2 33.8,79.2 L23.9,79.2 L23.9,83.2 Z M23.9,92.8 L34.1,92.8 C35.3,92.8 36.4,91.8 36.4,90.5 C36.4,89.3 35.4,88.2 34.1,88.2 L23.9,88.2 L23.9,92.8 Z M39.8,85.5 C41.1,86.8 42,88.6 42,90.7 C42,94.7 38.8,97.9 34.8,97.9 L18.2,97.9 L18.2,74.2 L34.4,74.2 C38.2,74.2 41.3,77.3 41.3,81.1 C41.4,82.8 40.8,84.3 39.8,85.5 Z" id="XMLID_120_" fill="#002D4A"></path>
            <polygon id="XMLID_118_" fill="#002D4A" points="97.2 102.9 97.2 108 81.4 108 81.4 112 96.7 112 96.7 117.1 81.4 117.1 81.4 121.6 97.2 121.6 97.2 126.6 75.8 126.6 75.8 102.9"></polygon>
            <path d="M93.3,139.6 C93.3,138.4 92.3,137.4 91.1,137.3 L81.5,137.3 L81.5,141.8 L91.1,141.8 C92.3,141.9 93.3,140.9 93.3,139.6 Z M75.8,156 L75.8,132.3 L91.6,132.3 C95.6,132.3 98.9,135.6 98.9,139.6 C98.9,142.7 97,145.3 94.3,146.4 L101.4,156 L94.6,156 L87.8,147 L81.3,147 L81.3,156 L75.8,156 Z" id="XMLID_115_" fill="#002D4A"></path>
            <path d="M172.1,81.1 C169.4,36.2 132.1,0.7 86.6,0.7 C41,0.7 3.8,36.2 1.1,81.1 C1.2,82.9 1.4,84.7 1.6,86.5 C3.5,101.4 9.1,115.2 17.6,126.7 C33.2,147.8 58.3,161.6 86.6,161.6 C47,161.6 14.4,130.8 11.7,91.8 C11.6,90 11.5,88.3 11.5,86.5 C11.5,84.7 11.6,82.9 11.7,81.2 C14.4,42.3 47,11.4 86.6,11.4 C114.9,11.4 140,25.1 155.6,46.3 C164.1,57.8 169.8,71.6 171.6,86.5 C171.8,88.2 172,90 172.1,91.8 C172.2,90 172.3,88.3 172.3,86.5 C172.2,84.6 172.2,82.8 172.1,81.1" id="XMLID_114_" fill="#ABCD03"></path>
            <path d="M1,91.7 C3.7,136.6 41,172.1 86.5,172.1 C132,172.1 169.3,136.6 172,91.7 C171.9,89.9 171.7,88.1 171.5,86.3 C169.6,71.4 164,57.6 155.5,46.1 C139.9,25 114.8,11.2 86.5,11.2 C126.1,11.2 158.7,42 161.4,81 C161.5,82.8 161.6,84.5 161.6,86.3 C161.6,88.1 161.5,89.9 161.4,91.6 C158.7,130.5 126.1,161.4 86.5,161.4 C58.2,161.4 33.1,147.7 17.5,126.5 C9,115 3.3,101.2 1.5,86.3 C1.3,84.6 1.1,82.8 1,81 C0.9,82.8 0.8,84.5 0.8,86.3 C0.8,88.2 0.9,89.9 1,91.7" id="XMLID_113_" fill="#00B8EE"></path>
        </g>
    </g>
</svg>