<?xml version="1.0" encoding="UTF-8"?>
<svg width="32px" height="32px" viewBox="0 0 32 32" version="1.1" xmlns="http://www.w3.org/2000/svg" xmlns:xlink="http://www.w3.org/1999/xlink">
    <!-- Generator: Sketch 55.2 (78181) - https://sketchapp.com -->
    <title>Group 15</title>
    <desc>Created with Sketch.</desc>
    <g id="首页" stroke="none" stroke-width="1" fill="none" fill-rule="evenodd">
        <g id="1024" transform="translate(-73.000000, -3633.000000)">
            <g id="Group-15" transform="translate(74.000000, 3634.000000)">
                <circle id="Oval" stroke="#FF3162" cx="15" cy="15" r="15"></circle>
                <path d="M16.0698361,20.1802448 C15.9745258,20.7868916 15.9100446,21.422861 15.7800112,22.034818 C15.5809892,22.8631961 15.6020227,23.8050147 14.2628107,23.9734639 C12.8883566,24.1473884 10.9470732,23.4496833 10.3154434,22.3695849 C10.2571728,22.1913587 10.1365466,21.8687884 10.1047795,21.5483231 C9.64439237,16.8513943 10.694907,12.5555791 13.380182,8.72143159 C13.9824689,7.8356455 14.6895632,6.99828321 15.4811387,6.15422327 C16.8945792,4.66410627 18.8304459,4.62904766 20.4650926,5.97809964 C20.7419929,6.22783754 20.9361368,6.50530121 20.9932188,6.84689116 C21.1202557,7.69590198 19.4302595,10.7537571 18.6199298,11.1737505 C17.999776,11.4944583 17.43203,11.2827427 16.9180446,11.0351854 C16.2789621,10.7480299 15.7663055,10.7701376 15.3123309,11.013788 C15.0731596,11.1360893 14.8504461,11.3259211 14.6384268,11.5545924 C13.2892179,13.068878 12.7993966,14.8002236 12.9550196,16.6857003 C13.0043047,17.3656216 13.3566439,17.8835319 14.2328434,17.9627837 C15.780916,18.0973175 16.2254933,18.9506192 16.0698361,20.1802448 Z" id="Shape" fill="#FF3162"></path>
            </g>
        </g>
    </g>
</svg>