<?xml version="1.0" encoding="UTF-8"?>
<svg width="32px" height="32px" viewBox="0 0 32 32" version="1.1" xmlns="http://www.w3.org/2000/svg" xmlns:xlink="http://www.w3.org/1999/xlink">
    <!-- Generator: Sketch 55.2 (78181) - https://sketchapp.com -->
    <title>Group 18</title>
    <desc>Created with Sketch.</desc>
    <g id="首页" stroke="none" stroke-width="1" fill="none" fill-rule="evenodd">
        <g id="1024" transform="translate(-73.000000, -3739.000000)">
            <g id="Group-18" transform="translate(74.000000, 3740.000000)">
                <circle id="Oval-Copy-4" stroke="#FF3162" cx="15" cy="15" r="15"></circle>
                <g id="black-envelope" transform="translate(7.000000, 9.000000)" fill="#FF3162" fill-rule="nonzero">
                    <path d="M1.25885714,0.7986 L6.99257143,5.5674 C7.25257143,5.7834 7.61085714,5.8794 7.95885714,5.8614 C8.30628571,5.8794 8.66457143,5.784 8.92457143,5.5674 L14.6582857,0.7986 C15.1177143,0.4188 15.0137143,0.1074 14.4308571,0.1074 L7.95942857,0.1074 L1.488,0.1074 C0.904571429,0.1074 0.800571429,0.4188 1.25885714,0.7986 Z" id="Path"></path>
                    <path d="M15.0725714,2.0568 L8.80685714,7.0518 C8.57257143,7.2366 8.26571429,7.3266 7.96,7.3224 C7.65371429,7.3266 7.34685714,7.236 7.11257143,7.0518 L0.845714286,2.0568 C0.380571429,1.6866 0,1.8852 0,2.4978 L0,10.6932 C0,11.3058 0.477714286,11.8074 1.06114286,11.8074 L7.95885714,11.8074 L14.8571429,11.8074 C15.4405714,11.8074 15.9182857,11.3058 15.9182857,10.6932 L15.9182857,2.4978 C15.9182857,1.8852 15.5377143,1.6866 15.0725714,2.0568 Z" id="Path"></path>
                </g>
            </g>
        </g>
    </g>
</svg>