<?xml version="1.0" encoding="UTF-8"?>
<svg width="32px" height="32px" viewBox="0 0 32 32" version="1.1" xmlns="http://www.w3.org/2000/svg" xmlns:xlink="http://www.w3.org/1999/xlink">
    <!-- Generator: Sketch 55.2 (78181) - https://sketchapp.com -->
    <title>Group 18 Copy</title>
    <desc>Created with Sketch.</desc>
    <g id="扶뒬못" stroke="none" stroke-width="1" fill="none" fill-rule="evenodd">
        <g id="扶뒬못2" transform="translate(-20.000000, -2668.000000)">
            <g id="Group-18-Copy" transform="translate(21.000000, 2669.000000)">
                <circle id="Oval-Copy-4" stroke="#FF3162" cx="15" cy="15" r="15"></circle>
                <g id="wechat" transform="translate(6.000000, 8.000000)" fill="#FF3162" fill-rule="nonzero">
                    <path d="M7.06416618,0 C3.16239172,0 0,2.55885714 0,5.71428571 C0,7.53371429 1.0572702,9.14742857 2.69733412,10.192 L1.76604154,12 L4.30325456,10.9451429 C4.84719536,11.1325714 5.41232865,11.2868571 6.01631486,11.3588571 C5.93389959,11.0102857 5.88680515,10.6525714 5.88680515,10.2857143 C5.88680515,7.13485714 9.05508368,4.57142857 12.9509713,4.57142857 C13.3077117,4.57142857 13.6562106,4.6 14,4.64114286 C13.3783534,1.99885714 10.5114793,0 7.06416618,0 Z M4.70944412,4.28571429 C4.22201665,4.28571429 3.82642335,3.90171429 3.82642335,3.42857143 C3.82642335,2.95542857 4.22201665,2.57142857 4.70944412,2.57142857 C5.19687158,2.57142857 5.59246489,2.95542857 5.59246489,3.42857143 C5.59246489,3.90171429 5.19687158,4.28571429 4.70944412,4.28571429 Z M9.41888823,4.28571429 C8.93146077,4.28571429 8.53586746,3.90171429 8.53586746,3.42857143 C8.53586746,2.95542857 8.93146077,2.57142857 9.41888823,2.57142857 C9.9063157,2.57142857 10.301909,2.95542857 10.301909,3.42857143 C10.301909,3.90171429 9.9063157,4.28571429 9.41888823,4.28571429 Z" id="Shape"></path>
                    <path d="M18,10.4444444 C18,7.99 15.5371,6 12.5,6 C9.4629,6 7,7.99 7,10.4444444 C7,12.8988889 9.4629,14.8888889 12.5,14.8888889 C12.9994,14.8888889 13.4746,14.8177778 13.9355,14.7166667 L16.9,16 L15.8748,13.93 C17.1596,13.1166667 18,11.8655556 18,10.4444444 Z M10.85,10.1666667 C10.3946,10.1666667 10.025,9.79333333 10.025,9.33333333 C10.025,8.87333333 10.3946,8.5 10.85,8.5 C11.3054,8.5 11.675,8.87333333 11.675,9.33333333 C11.675,9.79333333 11.3054,10.1666667 10.85,10.1666667 Z M14.15,10.1666667 C13.6946,10.1666667 13.325,9.79333333 13.325,9.33333333 C13.325,8.87333333 13.6946,8.5 14.15,8.5 C14.6054,8.5 14.975,8.87333333 14.975,9.33333333 C14.975,9.79333333 14.6054,10.1666667 14.15,10.1666667 Z" id="Shape"></path>
                </g>
            </g>
        </g>
    </g>
</svg>