<?xml version="1.0" encoding="UTF-8"?>
<svg width="347px" height="236px" viewBox="0 0 347 236" version="1.1" xmlns="http://www.w3.org/2000/svg" xmlns:xlink="http://www.w3.org/1999/xlink">
    <!-- Generator: Sketch 55.2 (78181) - https://sketchapp.com -->
    <title>Group 16</title>
    <desc>Created with Sketch.</desc>
    <defs>
        <rect id="path-1" x="6.46153846" y="6.55555556" width="51.6923077" height="47.5277778"></rect>
        <mask id="mask-2" maskContentUnits="userSpaceOnUse" maskUnits="objectBoundingBox" x="0" y="0" width="51.6923077" height="47.5277778" fill="white">
            <use xlink:href="#path-1"></use>
        </mask>
        <polygon id="path-3" points="0.00101470588 0.585574107 123.810353 0.585574107 123.810353 181.1875 0.00101470588 181.1875"></polygon>
        <polygon id="path-5" points="0 221.415107 123.810353 221.415107 123.810353 -1.42108547e-14 0 -1.42108547e-14"></polygon>
    </defs>
    <g id="首页" stroke="none" stroke-width="1" fill="none" fill-rule="evenodd">
        <g id="1024" transform="translate(-529.000000, -1512.000000)">
            <g id="Group-16" transform="translate(528.763077, 1514.000000)">
                <g id="icon-xfcbb" transform="translate(13.500000, 41.948702) rotate(16.000000) translate(-13.500000, -41.948702) translate(3.000000, 30.448702)" fill="#FFFFFF">
                    <path d="M11.1176471,4.53745909 C12.3814568,3.96150837 16.2598775,0.242109273 19.017554,1.55746891 C19.8019061,1.93159005 20.0376784,3.27261046 19.3903913,3.77850736 C19.5000549,2.67393242 19.2725711,2.01175648 18.70794,1.79197952 C17.8609934,1.46231408 16.5575427,1.80536746 15.4411765,2.23634337 C14.5515954,2.5797683 13.1104189,3.53802421 11.1176471,5.11111111 L11.1176471,4.53745909 Z" id="Path-4"></path>
                    <path d="M0,5.01452378 C0.311780519,3.99145981 2.80511225,2.54269243 4.16554553,2.55564176 C6.64467551,2.57923945 9.80477635,4.29534648 10.841564,4.45254179 L11.1176471,5.11111111 C10.8641641,4.89498556 10.6207242,4.7377863 10.3873272,4.63951334 C7.72623353,3.51904642 5.54113756,2.94166692 4.36981152,2.91784913 C4.29785554,2.91638598 4.22972532,2.91701185 4.16554553,2.91972918 C4.03819305,2.9251212 3.91057169,2.93614898 3.78268145,2.95281254 C3.69118371,2.96473431 3.59954834,2.97954077 3.50777534,2.99723193 C3.43146207,3.0119429 3.35505364,3.02864853 3.27855004,3.04734882 C3.1984136,3.06693712 3.11817274,3.08871401 3.03782746,3.11267951 C2.95473918,3.13746319 2.87153922,3.16458746 2.7882276,3.19405231 C2.72113142,3.21778224 2.65396281,3.24303031 2.58672178,3.2697965 C2.50420203,3.30264459 2.42157321,3.3377791 2.33883529,3.37520003 C2.240507,3.41967222 2.14202464,3.46737368 2.04338821,3.51830441 C1.9785508,3.55178309 1.91364681,3.5866571 1.84867625,3.62292646 C1.79527272,3.65273861 1.74182421,3.68349349 1.68833072,3.71519109 C1.62315085,3.75381348 1.5579042,3.7938355 1.49259077,3.83525714 C1.43341864,3.87278399 1.37419171,3.91145963 1.31490996,3.95128407 C1.2666364,3.9837134 1.18879226,4.16746556 1.14044601,4.20141841 C1.11845792,4.21686032 1.12599655,4.08189873 1.10399342,4.09765577 C1.08577066,4.1107056 1.03543061,4.26593532 1.01719752,4.2792013 C0.988121845,4.30035611 0.991145177,4.17971394 0.962043274,4.20141841 C0.931273543,4.22436677 0.843185102,4.42897896 0.812386054,4.45254179 C0.780076556,4.47726019 0.805054978,4.32096011 0.772713217,4.34635473 C0.738462502,4.37324826 0.677982231,4.54994521 0.643695333,4.57759714 C0.617110824,4.5990372 0.616726904,4.47128099 0.590120643,4.49317697 C0.575515076,4.50519683 0.538587167,4.66199545 0.522335246,4.6756672 C0.497703676,4.69638822 0.492680375,4.57505367 0.46426701,4.59956921 C0.445968099,4.61535782 0.41803012,4.75088226 0.398162642,4.76824472 C0.377946241,4.7859121 0.365772551,4.68544538 0.343932002,4.70474238 C0.3257346,4.72082051 0.28674348,4.88210633 0.260952016,4.90519809 C0.236550491,4.9270454 0.225746849,4.81033086 0.194547716,4.83845622 C0.158225046,4.87120035 0.0933758075,4.92988954 0,5.01452378 Z" id="Path-5"></path>
                    <path d="M14.3182274,6.30792882 C14.7787043,5.85295016 15.2791758,5.44495133 15.699658,4.94299282 C16.02698,4.55224585 16.1274575,3.54829685 16.7939414,3.91098058 C16.9862778,4.01564517 17.3890114,4.18725458 17.2737333,4.39023315 C17.017373,4.84162555 16.4102494,4.8653499 16.0520312,5.21731652 C15.3403295,5.91659768 14.7776744,6.79155606 14.0888739,7.51951085 C14.0033245,7.60992323 13.8558027,7.71261593 13.7553101,7.64459286 C13.2431617,7.29792174 14.0670697,6.46676573 14.1187566,6.38503417 L14.3182274,6.30792882 Z" id="Path-6"></path>
                    <path d="M17.2941176,2.4313594 C17.6497816,2.18826007 20.5704008,-0.582399518 20.980503,0.111078502 C21.1242905,0.354221641 20.432614,0.434335323 20.2208615,0.643512882 C19.7454273,1.11316558 19.5066943,1.74138574 18.9322464,2.1344275 C18.5285485,2.41064077 17.9282998,2.41517954 17.4263265,2.55555556 L17.2941176,2.4313594 Z" id="Path-7"></path>
                    <path d="M4.24944932,2.27169126 C4.80220293,2.86986895 5.08908036,2.42522467 4.86425139,1.83647753 C4.54368694,0.997033204 3.25142623,0.412360906 2.7014175,0.0529438123 C2.12033728,-0.21355375 2.63634788,0.526028734 4.24944932,2.27169126 Z" id="Path-8"></path>
                    <path d="M4.94117647,3.89084556 C5.48358711,4.49905357 6.08160877,5.0725221 6.56840839,5.71546958 C8.31394812,8.02091581 7.11253378,3.65199702 5.12383452,3.83920372 L4.94117647,3.89084556 Z" id="Path-9"></path>
                    <path d="M12.9875885,5.88781884 C13.9132151,6.73618601 14.1402918,6.93272916 14.349193,7.20926534 C14.5247417,7.44165074 14.6874554,7.73052539 15.2410894,8.51017258 C16.2069036,9.87026659 18.5702182,11.3357727 19.819169,14.0125915 C21.0681198,16.6894104 21.8676082,21.2623631 19.3518993,22.325274 C17.7277346,23.011499 15.3164262,21.868584 14.0286367,20.3959534 C12.445349,18.5854108 11.8810536,16.1988258 10.7816716,16.1988258 C8.9277881,16.1988258 8.72277033,18.7431478 7.43766255,20.3959534 C6.23168641,21.946986 3.8573013,23.7970508 1.73782156,22.635306 C0.285391051,21.8391891 -1.31032361,18.9809214 1.73782156,14.0125915 C4.4761271,9.54928538 7.26576992,7.93420909 7.43766255,7.48074774 C7.85144753,6.38916234 8.71371799,6.45534666 9.35278866,5.50656331 C9.77302829,4.39107666 10.3174865,3.83333333 10.9861632,3.83333333 C11.9891783,3.83333333 12.5716127,5.50656331 12.9875885,5.88781884 Z" id="Path-3"></path>
                    <path d="M8.64705882,15.8054772 C8.64705882,18.1924716 9.50256428,20.4444444 10.7139201,20.4444444 C11.9252759,20.4444444 12.3529412,17.8369932 12.3529412,15.8054772 C12.3529412,13.7739612 11.8486629,12.7777778 10.4947299,12.7777778 C9.140797,12.7777778 8.64705882,13.4184828 8.64705882,15.8054772 Z" id="Path-10"></path>
                </g>
                <g id="Group-10" transform="translate(283.236923, 17.000000)">
                    <path d="M35.3365385,14.6622024 C35.1574541,14.732764 34.8616513,15.074393 34.5288462,15.4670139 L34.5288462,15.4670139 C34.5944188,14.9325581 34.8004646,14.4631632 35.3365385,13.8573909 C35.3328601,13.6196931 35.665727,13.2396603 36.1442308,13.0525794 C36.0965668,12.8981323 36.1423411,12.8569012 36.1442308,13.0525794 L36.1442308,13.0525794 C36.4437652,12.6540443 36.5426956,12.5821844 36.9519231,12.2477679 C36.8628989,12.4218712 37.0742572,12.3036642 36.9519231,12.2477679 L37.7596154,12.2477679 C37.7469715,12.0900704 37.8612835,12.0674522 37.7596154,12.2477679 C38.087035,12.0123203 38.1994629,11.9829032 38.5673077,12.2477679 L38.5673077,12.2477679 L39.375,12.2477679 L39.375,11.4429563 C39.418132,11.7850613 39.5261431,11.7721703 39.375,11.4429563 L40.1826923,11.4429563 C40.3752209,11.6049572 40.7925632,11.4829132 40.9903846,11.4429563 C41.6109704,11.1866553 42.005024,10.9926504 42.6057692,10.6381448 C42.5635807,10.6343944 42.7380602,10.4956223 42.6057692,10.6381448 C43.0699696,10.1954264 43.2290674,10.0262275 43.4134615,9.83333333 L43.4134615,9.83333333 C43.202999,10.3194226 42.8684951,10.6669753 42.6057692,10.6381448 C42.1506243,11.2683433 41.7549646,11.5182542 40.9903846,11.4429563 C40.929299,11.9237324 40.5029378,12.0959942 40.1826923,12.2477679 L39.375,12.2477679 C39.6304787,12.3559351 39.5197804,12.3784524 39.375,12.2477679 L39.375,12.2477679 L38.5673077,12.2477679 L38.5673077,12.2477679 C38.3540822,12.6757874 38.2560475,12.7171531 37.7596154,13.0525794 C38.0564571,12.7918402 37.9557353,12.8252963 37.7596154,13.0525794 L37.7596154,13.0525794 L37.7596154,13.0525794 C37.3809939,13.0969503 37.3377215,13.1275791 36.9519231,13.0525794 C37.1983912,13.2013911 37.1066575,13.2535611 36.9519231,13.0525794 C36.9213676,13.3509001 36.8341124,13.4109123 36.9519231,13.8573909 L36.9519231,13.8573909 C36.5615983,13.5694753 36.52021,13.6019553 36.1442308,13.8573909 C36.1190524,13.8558041 35.7880696,14.126482 35.3365385,14.6622024 Z M23.1201923,10.6381448 C22.858425,10.6669753 22.52297,10.3194562 22.3125,9.83333333 L22.3125,9.83333333 C22.4978619,10.0262611 22.6569729,10.1955274 23.1201923,10.6381448 C22.9888145,10.4956223 23.1633055,10.6344953 23.1201923,10.6381448 C23.7208735,10.9926841 24.1156863,11.1866553 24.7355769,11.4429563 C24.9340951,11.4829132 25.351391,11.6049572 25.5432692,11.4429563 L26.3509615,11.4429563 C26.2003743,11.772204 26.3082807,11.785095 26.3509615,11.4429563 L26.3509615,12.2477679 L27.1586538,12.2477679 L27.1586538,12.2477679 C27.5269069,11.9829032 27.6393223,12.012455 27.9663462,12.2477679 C27.8650488,12.0674522 27.9792863,12.090205 27.9663462,12.2477679 L28.7740385,12.2477679 C28.6519875,12.3037652 28.8624266,12.4218712 28.7740385,12.2477679 C29.1834899,12.582319 29.2824093,12.6540779 29.5817308,13.0525794 L29.5817308,13.0525794 C29.5837073,12.8569012 29.6295691,12.8982669 29.5817308,13.0525794 C30.060361,13.239694 30.3931291,13.6196931 30.3894231,13.8573909 C30.9246316,14.4631969 31.13155,14.9326591 31.1971154,15.4670139 L31.1971154,15.4670139 C30.8634825,15.074393 30.5675891,14.732764 30.3894231,14.6622024 C29.938032,14.126482 29.6061904,13.8558041 29.5817308,13.8573909 C29.205973,13.601989 29.1646202,13.569509 28.7740385,13.8573909 L28.7740385,13.8573909 C28.8912099,13.411047 28.80486,13.3509001 28.7740385,13.0525794 C28.6196217,13.2535611 28.5278673,13.2013911 28.7740385,13.0525794 C28.3885525,13.1275791 28.3444202,13.0969839 27.9663462,13.0525794 L27.9663462,13.0525794 L27.9663462,13.0525794 C27.7706384,12.82533 27.6698969,12.7919412 27.9663462,13.0525794 C27.470236,12.7171531 27.3713166,12.675821 27.1586538,12.2477679 L27.1586538,12.2477679 L26.3509615,12.2477679 L26.3509615,12.2477679 C26.2057789,12.378486 26.0952474,12.3559351 26.3509615,12.2477679 L25.5432692,12.2477679 C25.2227927,12.0959942 24.7974054,11.9237661 24.7355769,11.4429563 C23.9709051,11.5182542 23.5760924,11.2683433 23.1201923,10.6381448 Z M50.3730769,24.5935764 C50.6440325,24.0580641 50.938641,23.6949126 51.1875,23.0161458 C50.9770011,23.715841 50.7159979,24.1069487 50.3730769,24.5935764 C50.1294796,24.8438708 49.8057637,25.1915117 49.5586538,25.3822917 C49.2481601,25.6532064 49.0498375,25.7961761 48.7442308,26.1710069 C48.7186359,25.9782162 48.6007604,26.030723 48.7442308,26.1710069 C48.4434645,26.0832608 48.4098914,26.0914031 48.7442308,26.1710069 C48.3444157,26.1085854 48.3096859,26.1158299 47.9298077,26.1710069 C48.241383,26.1275015 48.2049184,26.1320525 47.9298077,26.1710069 C48.1319249,26.1384611 48.09742,26.1384611 47.9298077,26.1710069 C47.7885791,26.1384611 47.5313027,26.0677502 47.1153846,26.1710069 C47.0522828,25.8885893 46.8296076,25.7754334 46.3009615,25.3822917 C46.1906253,25.4032727 45.7995381,25.1190981 45.4865385,24.5935764 C45.0408168,24.5405943 44.6740502,24.2445314 44.6721154,23.8048611 C44.1221653,23.8217525 43.9350551,23.6814453 43.8576923,23.8048611 C43.5822639,23.4423473 43.403539,23.3491911 43.0432692,23.0161458 C43.0574945,23.2342086 42.8927451,23.2160046 43.0432692,23.0161458 C42.6850413,23.2514219 42.6215254,23.2721336 42.2288462,23.0161458 C42.5568529,23.3048265 42.5493672,23.3093466 42.2288462,23.0161458 C42.4548804,23.443338 42.3547714,23.5510761 42.2288462,23.8048611 C42.1395819,23.7303299 40.8673037,25.9900117 40.6,26.1710069 C40.7194855,26.3521106 40.8382284,26.5829734 40.6,26.9597222 C40.8382284,26.5829734 41.4117351,27.7327365 41.4144231,27.7484375 C42.1855241,28.0242485 44.2680238,28.0206262 44.6721154,29.3258681 C44.8808223,29.2998298 44.9557756,29.3866704 44.6721154,29.3258681 C45.0624065,29.534222 45.1129429,29.5940661 45.4865385,29.3258681 L45.4865385,30.1145833 C45.3476659,29.9589204 45.4066197,30.082943 45.4865385,30.1145833 C45.7248097,30.7012604 45.9147149,31.2028305 46.3009615,31.6920139 C46.3581055,32.7182219 46.5265817,33.7349843 46.3009615,34.846875 L47.1153846,35.6355903 L47.1153846,36.4243056 L47.1153846,37.2130208 C46.82315,37.1578964 46.8249491,37.1887937 47.1153846,37.2130208 C46.838025,37.2674611 46.8400169,37.3227542 47.1153846,37.2130208 C46.8688994,37.431421 46.880144,37.4875501 47.1153846,37.2130208 L47.1153846,38.0017361 C47.1590422,38.1248764 47.5434469,38.4679973 47.9298077,38.7904514 C48.2049184,38.831025 48.4425328,38.9269057 48.7442308,38.7904514 C48.9346607,39.0772745 49.1901701,39.1261591 49.5586538,38.7904514 C49.1882104,39.1524125 48.9262433,39.1305863 48.7442308,38.7904514 C48.4098914,39.0292878 48.154382,38.9559764 47.9298077,38.7904514 C47.4227762,38.6472511 46.9587277,38.3266685 46.3009615,38.0017361 C46.5414567,37.6024087 46.519096,37.5364347 46.3009615,37.2130208 C46.4695234,37.4051367 46.4573471,37.3345497 46.3009615,37.2130208 C46.4302316,37.2286072 46.4245129,37.196936 46.3009615,37.2130208 L46.3009615,36.4243056 L46.3009615,35.6355903 L46.3009615,34.846875 C45.7686958,33.881669 45.4964159,32.9219335 45.4865385,31.6920139 C44.9370453,31.5731027 44.7153339,31.1439771 44.6721154,30.9032986 C44.3971439,30.6632424 44.3373548,30.5635848 44.6721154,30.1145833 L43.8576923,30.1145833 C44.1276912,30.3065614 44.089331,30.2721657 43.8576923,30.1145833 C44.0248834,30.1997212 43.9948443,30.1698455 43.8576923,30.1145833 C43.4915039,30.2059749 42.8141293,30.2603703 42.2288462,30.1145833 C42.4924053,31.5748054 42.5643386,33.6153888 42.2288462,35.6355903 C40.8382284,40.366447 38.9202854,45.8888889 32.4557692,45.8888889 C26.804648,45.8888889 24.886705,40.366447 23.4971154,35.6355903 C23.1606913,33.6153888 23.2326246,31.5748054 23.4971154,30.1145833 C22.9108042,30.2603703 22.2335259,30.2059749 21.8682692,30.1145833 C21.7301856,30.1698455 21.7010781,30.1997212 21.8682692,30.1145833 C21.6366305,30.2721657 21.5973387,30.3065614 21.8682692,30.1145833 L21.0538462,30.1145833 C21.3886068,30.5635848 21.3277896,30.6632424 21.0538462,30.9032986 C21.0106276,31.1439771 20.7889163,31.5731027 20.2394231,31.6920139 C20.2285176,32.9219335 19.9572658,33.881669 19.425,34.846875 L19.425,35.6355903 L19.425,36.4243056 L19.425,37.2130208 C19.3014486,37.196936 19.29573,37.2286072 19.425,37.2130208 C19.2686144,37.3345497 19.2556028,37.4051367 19.425,37.2130208 C19.2068655,37.5364347 19.1834767,37.6024087 19.425,38.0017361 C18.7662057,38.3266685 18.3021572,38.6472511 17.7961538,38.7904514 C17.5706479,38.9559764 17.3160702,39.0292878 16.9817308,38.7904514 C16.7987865,39.1305863 16.5377512,39.1524125 16.1673077,38.7904514 C16.5357914,39.1261591 16.7902727,39.0772745 16.9817308,38.7904514 C17.2834287,38.9269057 17.5210431,38.831025 17.7961538,38.7904514 C18.1825147,38.4679973 18.5669193,38.1248764 18.6105769,38.0017361 L18.6105769,37.2130208 C18.8447894,37.4875501 18.8570621,37.431421 18.6105769,37.2130208 C18.8851093,37.3227542 18.8869085,37.2674611 18.6105769,37.2130208 C18.9010124,37.1887937 18.9028115,37.1578964 18.6105769,37.2130208 L18.6105769,36.4243056 L18.6105769,35.6355903 L19.425,34.846875 C19.1984481,33.7349843 19.3668279,32.7182219 19.425,31.6920139 C19.8103149,31.2028305 20.0003165,30.7012604 20.2394231,30.1145833 C20.3183138,30.082943 20.377364,29.9589204 20.2394231,30.1145833 L20.2394231,29.3258681 C20.6130186,29.5940661 20.6626876,29.534222 21.0538462,29.3258681 C20.7692543,29.3876611 20.8431795,29.3016564 21.0538462,29.3258681 C21.454211,28.0206262 23.5386383,28.0242485 24.3115385,27.7484375 C24.3131984,27.7327365 24.886705,26.5829734 25.1259615,26.9597222 C24.886705,26.5829734 25.0056408,26.3521106 25.1259615,26.1710069 C24.8578225,25.9900117 23.5854158,23.7303299 23.4971154,23.8048611 C23.3692304,23.5510761 23.2701494,23.443338 23.4971154,23.0161458 C23.1746346,23.3084488 23.1680806,23.3048265 23.4971154,23.0161458 C23.1044362,23.2721336 23.0409202,23.2514219 22.6826923,23.0161458 C22.8332164,23.2160046 22.6675353,23.2342086 22.6826923,23.0161458 C22.3213623,23.3491911 22.1436976,23.4423473 21.8682692,23.8048611 C21.7909064,23.6814453 21.602961,23.8217525 21.0538462,23.8048611 C21.0519114,24.2445314 20.6841166,24.5405943 20.2394231,24.5935764 C19.9254596,25.1190981 19.5353363,25.4032727 19.425,25.3822917 C18.8963539,25.7754334 18.6726507,25.8885893 18.6105769,26.1710069 C18.1946589,26.0677502 17.9363544,26.1384611 17.7961538,26.1710069 C17.6276098,26.1384611 17.5940366,26.1384611 17.7961538,26.1710069 C17.5201114,26.1320525 17.4844821,26.1275015 17.7961538,26.1710069 C17.4153439,26.1158299 17.3815459,26.1085854 16.9817308,26.1710069 C17.3151385,26.0914031 17.282497,26.0832608 16.9817308,26.1710069 C17.1242694,26.030723 17.0064903,25.9782162 16.9817308,26.1710069 C16.6752887,25.7961761 16.4768697,25.6532064 16.1673077,25.3822917 C15.9201978,25.1915117 15.5956466,24.8438708 15.3528846,24.5935764 C15.0099636,24.1069487 14.7489604,23.715841 14.5384615,23.0161458 C14.7873206,23.6949126 15.0819291,24.0580641 15.3528846,24.5935764 C15.723835,24.7279904 16.0737348,25.0385113 16.1673077,25.3822917 C16.6424545,25.4286902 16.8398775,25.5445706 16.9817308,25.3822917 C17.2478636,25.7201093 17.4574308,25.7781578 17.7961538,25.3822917 C18.0543263,25.7147843 18.452867,25.4821258 18.6105769,25.3822917 C19.1862718,24.9633733 19.5316095,24.6600969 20.2394231,24.5935764 L21.0538462,23.0161458 C21.0742721,23.2206175 21.2492059,23.0612085 21.0538462,23.0161458 C21.6477787,22.734465 21.8760441,22.579669 21.8682692,22.2274306 C22.4094236,22.3441932 22.7236619,22.2636993 22.6826923,22.2274306 C23.2288978,22.2916864 23.3992374,22.3251843 23.4971154,22.2274306 C23.6424099,22.4166997 23.7220216,22.452922 23.4971154,22.2274306 C23.8379374,22.5190199 23.8754622,22.5425489 24.3115385,22.2274306 C23.9334522,22.5832912 23.9531142,22.5977801 24.3115385,22.2274306 L24.3115385,23.0161458 C24.9868141,22.8683636 25.8952492,23.8289969 25.9403846,24.5935764 C26.5250109,23.9212554 27.1761696,23.3998713 28.3836538,23.0161458 C28.2734818,23.1897511 28.2876178,23.0594748 28.3836538,23.0161458 C27.7083925,22.8594164 26.7269961,22.0835476 26.7548077,22.2274306 C26.3331138,21.6643909 26.0898771,21.4000302 25.9403846,21.4387153 C26.2086843,20.8621758 26.2246838,20.556175 25.9403846,20.65 C26.2415185,19.9116043 26.2395588,19.5639633 25.9403846,19.0725694 C26.1872553,18.5283777 26.1077399,17.8339936 25.9403846,17.4951389 C25.7708196,16.8761776 25.6165437,16.5691551 25.1259615,16.7064236 C25.3555405,16.3103361 25.3246661,16.2849805 25.1259615,15.9177083 L24.3115385,15.9177083 C24.2637221,15.456543 23.9727441,15.2429555 23.4971154,15.1289931 L23.4971154,14.3402778 C23.1644181,14.6617582 23.092292,14.6073319 22.6826923,14.3402778 C22.9874923,14.5196245 22.9539192,14.4897488 22.6826923,14.3402778 C22.893102,14.4236509 22.8630628,14.3847352 22.6826923,14.3402778 C22.8677534,14.3838374 22.8996559,14.4182331 22.6826923,14.3402778 C22.9650674,14.4779843 23.0006967,14.5051356 22.6826923,14.3402778 C23.1110865,14.5821002 23.1887385,14.6299941 23.4971154,14.3402778 L23.4971154,15.1289931 C24.0466693,15.1379418 24.3572772,15.3253689 24.3115385,15.1289931 L25.1259615,15.9177083 C25.5051258,16.0676159 25.5463774,16.0966866 25.9403846,15.9177083 C25.8915224,16.3818519 26.0937003,16.715004 25.9403846,16.7064236 C26.5623109,17.7306827 26.711093,18.4496175 26.7548077,19.0725694 C26.8673286,19.523221 26.902958,19.8827193 26.7548077,19.8612847 C26.9440489,20.4856809 26.9561931,20.7227665 26.7548077,20.65 C27.4230367,21.1383939 27.9928166,21.532226 28.3836538,21.4387153 C28.1435263,20.8369441 27.8178506,20.2213202 27.5692308,19.8612847 C27.3893672,18.9783079 27.5764773,18.0503675 28.3836538,17.4951389 C29.4008652,17.1450583 30.3598046,17.5297884 30.8269231,18.2838542 C30.7340248,18.0956299 30.8510008,17.8240248 30.8269231,16.7064236 C30.6638585,16.0586687 31.3889424,15.7870636 32.4557692,15.9177083 C32.1607716,14.836492 32.8624667,14.836492 32.4557692,15.1289931 C32.8624667,14.836492 33.5641297,14.836492 33.2701923,15.9177083 C34.3359911,15.7870636 35.0610749,16.0586687 34.8990385,16.7064236 C34.8739327,17.8240248 34.9908765,18.0956299 34.8990385,18.2838542 C35.3651289,17.5297884 36.3240682,17.1450583 37.3423077,17.4951389 C38.1484562,18.0503675 38.3355663,18.9783079 38.1567308,19.8612847 C37.9070828,20.2213202 37.5815999,20.8369441 37.3423077,21.4387153 C37.7322133,21.532226 38.301961,21.1383939 38.9711538,20.65 C38.7687404,20.7227665 38.7809809,20.4846592 38.9711538,19.8612847 C38.8220719,19.8827193 38.8576048,19.523221 38.9711538,19.0725694 C39.0148686,18.4496175 39.1636507,17.7306827 39.7855769,16.7064236 C39.631426,16.715004 39.8344392,16.3818519 39.7855769,15.9177083 C40.1786524,16.0966866 40.2208357,16.0676159 40.6,15.9177083 L41.4144231,15.1289931 C41.3677526,15.3253689 41.6792923,15.1379418 42.2288462,15.1289931 L42.2288462,14.3402778 C42.537223,14.6299941 42.6140397,14.5821002 43.0432692,14.3402778 C42.7243331,14.5051356 42.7608942,14.4779843 43.0432692,14.3402778 C42.8263056,14.4182331 42.8582081,14.3838374 43.0432692,14.3402778 C42.8618707,14.3847352 42.8328596,14.4236509 43.0432692,14.3402778 C42.7720424,14.4897488 42.7375054,14.5196245 43.0432692,14.3402778 C42.6336696,14.6073319 42.5606118,14.6617582 42.2288462,14.3402778 L42.2288462,15.1289931 C41.7532175,15.2429555 41.4622394,15.456543 41.4144231,15.9177083 L40.6,15.9177083 C40.4003638,16.2849805 40.3694893,16.3103361 40.6,16.7064236 C40.1084861,16.5691551 39.9551419,16.8761776 39.7855769,17.4951389 C39.6172899,17.8339936 39.5378709,18.5283777 39.7855769,19.0725694 C39.4864028,19.5639633 39.484443,19.9116043 39.7855769,20.65 C39.5012778,20.556175 39.5162492,20.8621758 39.7855769,21.4387153 C39.6351528,21.4000302 39.3918196,21.6643909 38.9711538,22.2274306 C38.9979374,22.0835476 38.0166373,22.8594164 37.3423077,23.0161458 C37.4375084,23.0594748 37.4515481,23.1897511 37.3423077,23.0161458 C38.5488603,23.3998713 39.2000189,23.9212554 39.7855769,24.5935764 C39.8297486,23.8289969 40.7391474,22.8666608 41.4144231,23.0161458 L41.4144231,22.2274306 C41.7728473,22.5977801 41.7925093,22.5832912 41.4144231,22.2274306 C41.849664,22.5425489 41.8880242,22.5190199 42.2288462,22.2274306 C42.0039399,22.452922 42.08262,22.4166997 42.2288462,22.2274306 C42.3267241,22.3251843 42.496132,22.2916864 43.0432692,22.2274306 C43.0022032,22.2636993 43.3157027,22.3441932 43.8576923,22.2274306 C43.8499175,22.579669 44.0780864,22.734465 44.6721154,23.0161458 C44.4767557,23.0612085 44.6506614,23.2206175 44.6721154,23.0161458 L45.4865385,24.5935764 C46.1934203,24.6600969 46.5396897,24.9633733 47.1153846,25.3822917 C47.2722271,25.4821258 47.6716353,25.7147843 47.9298077,25.3822917 C48.267599,25.7781578 48.4772626,25.7201093 48.7442308,25.3822917 C48.8851524,25.5445706 49.0834107,25.4286902 49.5586538,25.3822917 C49.6512951,25.0385113 50.0012912,24.7279904 50.3730769,24.5935764 Z M32.3076923,27.8611111 C31.3910969,27.8611111 30.5472555,28.129968 29.8088942,28.6122685 C29.2814933,29.2054951 28.9759615,29.948128 28.9759615,30.8657407 L30.6418269,30.8657407 C30.6345544,30.3578419 30.7509433,29.9353205 30.6418269,29.3634259 C31.274708,29.2823149 31.7257186,29.1158678 32.3076923,29.3634259 C32.8605469,29.1158678 33.2533777,29.2311099 33.140625,29.3634259 C33.7916873,29.7176686 33.9371953,30.0505627 33.9735577,30.1145833 C33.9371953,30.7931707 33.8062322,31.1004748 33.140625,31.6168981 C32.4240812,32.3040266 31.8566817,32.8417901 31.4747596,33.119213 C31.4638509,33.5332181 31.3765519,33.9557395 31.4747596,34.6215278 L33.140625,34.6215278 C33.0496898,34.134994 33.1224438,33.8661123 33.140625,33.8703704 C33.3988857,33.3795537 33.5879994,33.1619017 33.9735577,33.119213 C34.5482589,32.4320762 34.9701796,32.0863746 34.8064904,31.6168981 C35.4502802,31.5486111 35.6394231,31.023655 35.6394231,30.1145833 C35.6394231,29.6024264 35.3484362,28.9878431 34.8064904,28.6122685 C34.184518,28.0787631 33.4134306,27.8611111 32.3076923,27.8611111 Z M33.0480769,36.875 C33.0958492,36.875 32.837896,36.9794662 32.3076923,36.875 C32.4080027,37.3973309 32.3076923,37.6659458 32.3076923,37.6261574 C32.3076923,38.3225986 32.4080027,38.5912425 32.3076923,39.1284722 C32.837896,39.0090782 33.0958492,39.1284722 33.0480769,39.1284722 C33.7263633,39.1284722 33.9843165,39.024006 34.5288462,39.1284722 C34.4142099,38.6061413 34.5288462,38.3225986 34.5288462,37.6261574 C34.5288462,37.6659458 34.4142099,37.3973309 34.5288462,36.875 C33.9986425,36.9794662 33.7263633,36.875 33.0480769,36.875 Z" id="icon-detection-w" fill="#FFFFFF"></path>
                    <g id="Group-4" stroke="#FFFFFF" stroke-width="1.62">
                        <polyline id="Path-13" points="51.6923077 0 63 0 63 11.4722222"></polyline>
                        <polyline id="Path-13-Copy-2" transform="translate(57.346154, 53.263889) scale(1, -1) translate(-57.346154, -53.263889) " points="51.6923077 47.5277778 63 47.5277778 63 59"></polyline>
                        <polyline id="Path-13-Copy" transform="translate(5.653846, 5.736111) scale(-1, 1) translate(-5.653846, -5.736111) " points="0 0 11.3076923 0 11.3076923 11.4722222"></polyline>
                        <polyline id="Path-13-Copy-3" transform="translate(5.653846, 53.263889) scale(-1, -1) translate(-5.653846, -53.263889) " points="0 47.5277778 11.3076923 47.5277778 11.3076923 59"></polyline>
                    </g>
                    <use id="Rectangle" stroke="#ECECEC" mask="url(#mask-2)" stroke-width="3.24" stroke-dasharray="3.239999914169311" xlink:href="#path-1"></use>
                </g>
                <path d="M27.0164494,157.128322 C26.8520132,157.190134 26.5804058,157.489405 26.2748226,157.833345 L26.2748226,157.833345 C26.3350317,157.365156 26.5242238,156.953961 27.0164494,156.423298 C27.0130719,156.215072 27.3187118,155.88216 27.7580762,155.718275 C27.7143109,155.582977 27.756341,155.546858 27.7580762,155.718275 L27.7580762,155.718275 C28.0331101,155.369154 28.1239484,155.306204 28.499703,155.013251 C28.4179606,155.165767 28.6120307,155.062217 28.499703,155.013251 L29.2413298,155.013251 C29.22972,154.875106 29.3346818,154.855293 29.2413298,155.013251 C29.5419679,154.806996 29.6451998,154.781227 29.9829565,155.013251 L29.9829565,155.013251 L30.7245833,155.013251 L30.7245833,154.308227 C30.7641873,154.607915 30.8633636,154.596622 30.7245833,154.308227 L31.4662101,154.308227 C31.6429908,154.450142 32.0261964,154.34323 32.2078369,154.308227 C32.7776616,154.083705 33.1394835,153.913755 33.6910905,153.603204 C33.6523528,153.599918 33.8125606,153.478353 33.6910905,153.603204 C34.1173214,153.215378 34.2634058,153.067158 34.4327173,152.89818 L34.4327173,152.89818 C34.2394696,153.324 33.9323266,153.62846 33.6910905,153.603204 C33.2731744,154.155265 32.9098778,154.374189 32.2078369,154.308227 C32.1517478,154.729393 31.760261,154.880296 31.4662101,155.013251 L30.7245833,155.013251 C30.959165,155.108007 30.8575214,155.127732 30.7245833,155.013251 L30.7245833,155.013251 L29.9829565,155.013251 L29.9829565,155.013251 C29.7871719,155.388201 29.697156,155.424438 29.2413298,155.718275 C29.5138912,155.489864 29.4214079,155.519172 29.2413298,155.718275 L29.2413298,155.718275 L29.2413298,155.718275 C28.8936778,155.757144 28.8539449,155.783975 28.499703,155.718275 C28.7260111,155.848635 28.6417808,155.894337 28.499703,155.718275 C28.4716468,155.979607 28.3915287,156.032178 28.499703,156.423298 L28.499703,156.423298 C28.141305,156.171081 28.103302,156.199534 27.7580762,156.423298 C27.7349573,156.421908 27.4310473,156.659025 27.0164494,157.128322 Z M16.7006741,153.863747 C16.4603182,153.889002 16.1523019,153.584572 15.9590473,153.158723 L15.9590473,153.158723 C16.1292474,153.32773 16.2753439,153.476009 16.7006741,153.863747 C16.5800424,153.738895 16.7402608,153.86055 16.7006741,153.863747 C17.2522223,154.174327 17.6147412,154.344248 18.1839277,154.56877 C18.366208,154.603773 18.749371,154.710685 18.9255545,154.56877 L19.6671813,154.56877 C19.5289114,154.857195 19.6279916,154.868487 19.6671813,154.56877 L19.6671813,155.273794 L20.4088081,155.273794 L20.4088081,155.273794 C20.7469397,155.041769 20.8501601,155.067657 21.1504349,155.273794 C21.0574231,155.115835 21.1623165,155.135767 21.1504349,155.273794 L21.8920616,155.273794 C21.7799939,155.322848 21.9732201,155.42631 21.8920616,155.273794 C22.2680219,155.566864 22.3588501,155.629726 22.6336884,155.978817 L22.6336884,155.978817 C22.6355033,155.807401 22.6776138,155.843638 22.6336884,155.978817 C23.0731689,156.142732 23.3787181,156.475615 23.3753152,156.683841 C23.8667461,157.214533 24.0567396,157.625787 24.116942,158.093888 L24.116942,158.093888 C23.8105988,157.749948 23.5389081,157.450677 23.3753152,157.388864 C22.9608459,156.919567 22.6561474,156.682451 22.6336884,156.683841 C22.288666,156.460106 22.2506956,156.431653 21.8920616,156.683841 L21.8920616,156.683841 C21.999649,156.292839 21.9203622,156.240149 21.8920616,155.978817 C21.7502755,156.154879 21.6660261,156.109178 21.8920616,155.978817 C21.5381066,156.044518 21.4975841,156.017716 21.1504349,155.978817 L21.1504349,155.978817 L21.1504349,155.978817 C20.970735,155.779744 20.8782337,155.750495 21.1504349,155.978817 C20.6949042,155.68498 20.604076,155.648773 20.4088081,155.273794 L20.4088081,155.273794 L19.6671813,155.273794 L19.6671813,155.273794 C19.5338739,155.388304 19.4323834,155.368549 19.6671813,155.273794 L18.9255545,155.273794 C18.6312914,155.140838 18.2406989,154.989965 18.1839277,154.56877 C17.4818025,154.634732 17.1192836,154.415807 16.7006741,153.863747 Z M41.1101471,164.131587 C41.3393379,163.684811 41.5885358,163.381835 41.799036,162.815543 C41.6209832,163.399296 41.4002107,163.725595 41.1101471,164.131587 C40.9040977,164.340406 40.6302789,164.630442 40.4212583,164.789609 C40.1586237,165.015632 39.9908703,165.134911 39.7323694,165.447631 C39.7107197,165.286786 39.6110133,165.330593 39.7323694,165.447631 C39.4779629,165.374425 39.4495646,165.381218 39.7323694,165.447631 C39.3941813,165.395553 39.3648047,165.401597 39.0434805,165.447631 C39.30703,165.411334 39.276186,165.415131 39.0434805,165.447631 C39.2144436,165.420478 39.1852573,165.420478 39.0434805,165.447631 C38.9240207,165.420478 38.7064006,165.361484 38.3545916,165.447631 C38.3012162,165.212011 38.1128639,165.117605 37.6657027,164.789609 C37.5723735,164.807113 37.2415681,164.570028 36.9768138,164.131587 C36.5997952,164.087384 36.2895615,163.84038 36.2879249,163.473565 C35.8227435,163.487657 35.6644743,163.3706 35.599036,163.473565 C35.3660618,163.171121 35.2148854,163.093401 34.9101471,162.815543 C34.9221798,162.997472 34.7828246,162.982284 34.9101471,162.815543 C34.607136,163.011833 34.5534104,163.029112 34.2212583,162.815543 C34.4987064,163.056388 34.4923746,163.060159 34.2212583,162.815543 C34.4124519,163.171948 34.3277735,163.261833 34.2212583,163.473565 C34.1457531,163.411384 33.0695823,165.296627 32.8434805,165.447631 C32.9445486,165.598725 33.0449887,165.791333 32.8434805,166.105653 C33.0449887,165.791333 33.5300957,166.750576 33.5323694,166.763675 C34.1846138,166.993783 35.9461195,166.990761 36.2879249,168.079719 C36.464462,168.057995 36.5278621,168.130446 36.2879249,168.079719 C36.618057,168.253548 36.6608038,168.303475 36.9768138,168.079719 L36.9768138,168.737741 C36.8593469,168.607872 36.9092136,168.711343 36.9768138,168.737741 C37.1783582,169.227203 37.3389917,169.645661 37.6657027,170.053785 C37.7140386,170.909946 37.8565461,171.758227 37.6657027,172.685873 L38.3545916,173.343895 L38.3545916,173.343895 L38.3545916,174.001917 L38.3545916,174.659939 L38.3545916,174.659939 C38.1074017,174.613949 38.1089235,174.639726 38.3545916,174.659939 C38.1199838,174.705358 38.1216687,174.751489 38.3545916,174.659939 C38.1460993,174.842149 38.1556107,174.888977 38.3545916,174.659939 L38.3545916,175.317961 C38.3915199,175.420696 38.7166728,175.70696 39.0434805,175.975983 C39.276186,176.009833 39.4771748,176.089826 39.7323694,175.975983 C39.8934467,176.215278 40.1095722,176.256062 40.4212583,175.975983 C40.1079145,176.277965 39.8863267,176.259756 39.7323694,175.975983 C39.4495646,176.175243 39.2334391,176.114079 39.0434805,175.975983 C38.6146022,175.856511 38.2220816,175.58905 37.6657027,175.317961 L37.6657027,175.317961 C37.8691283,174.984803 37.8502142,174.929761 37.6657027,174.659939 C37.8082827,174.82022 37.7979832,174.76133 37.6657027,174.659939 C37.7750472,174.672942 37.77021,174.646519 37.6657027,174.659939 L37.6657027,174.659939 L37.6657027,174.001917 L37.6657027,173.343895 L37.6657027,173.343895 L37.6657027,172.685873 C37.2154797,171.880605 36.9851687,171.079902 36.9768138,170.053785 C36.5120188,169.954578 36.3244818,169.59656 36.2879249,169.395763 C36.0553372,169.195485 36.0047639,169.112341 36.2879249,168.737741 L35.599036,168.737741 C35.8274176,168.897907 35.7949703,168.869211 35.599036,168.737741 C35.7404565,168.808771 35.7150476,168.783846 35.599036,168.737741 C35.2892915,168.813988 34.7163266,168.85937 34.2212583,168.737741 C34.4441927,169.955998 34.5050383,171.658449 34.2212583,173.343895 C33.0449887,177.290829 31.4226751,181.89818 25.9545916,181.89818 C21.1745274,181.89818 19.5522138,177.290829 18.3768138,173.343895 C18.0922457,171.658449 18.1530913,169.955998 18.3768138,168.737741 C17.8808759,168.85937 17.3079925,168.813988 16.999036,168.737741 C16.8822364,168.783846 16.8576156,168.808771 16.999036,168.737741 C16.8031018,168.869211 16.7698664,168.897907 16.999036,168.737741 L16.3101471,168.737741 C16.5933082,169.112341 16.5418653,169.195485 16.3101471,169.395763 C16.2735903,169.59656 16.0860532,169.954578 15.6212583,170.053785 C15.6120337,171.079902 15.3825923,171.880605 14.9323694,172.685873 L14.9323694,173.343895 L14.9323694,173.343895 L14.9323694,174.001917 L14.9323694,174.659939 L14.9323694,174.659939 C14.8278621,174.646519 14.8230249,174.672942 14.9323694,174.659939 C14.8000889,174.76133 14.7890828,174.82022 14.9323694,174.659939 C14.7478579,174.929761 14.7280742,174.984803 14.9323694,175.317961 L14.9323694,175.317961 C14.3751209,175.58905 13.9826002,175.856511 13.5545916,175.975983 C13.3638448,176.114079 13.1485074,176.175243 12.8657027,175.975983 C12.7109572,176.259756 12.4901576,176.277965 12.1768138,175.975983 C12.4884999,176.256062 12.7037558,176.215278 12.8657027,175.975983 C13.1208973,176.089826 13.3218861,176.009833 13.5545916,175.975983 C13.8813992,175.70696 14.2065522,175.420696 14.2434805,175.317961 L14.2434805,174.659939 C14.4415917,174.888977 14.4519727,174.842149 14.2434805,174.659939 C14.4756968,174.751489 14.4772186,174.705358 14.2434805,174.659939 C14.4891486,174.639726 14.4906704,174.613949 14.2434805,174.659939 L14.2434805,174.659939 L14.2434805,174.001917 L14.2434805,173.343895 L14.2434805,173.343895 L14.9323694,172.685873 C14.7407379,171.758227 14.8831639,170.909946 14.9323694,170.053785 C15.2582923,169.645661 15.4190073,169.227203 15.6212583,168.737741 C15.6879888,168.711343 15.7379371,168.607872 15.6212583,168.737741 L15.6212583,168.079719 C15.9372682,168.303475 15.9792813,168.253548 16.3101471,168.079719 C16.0694219,168.131272 16.1319524,168.059519 16.3101471,168.079719 C16.6488002,166.990761 18.4119364,166.993783 19.0657027,166.763675 C19.0671068,166.750576 19.5522138,165.791333 19.7545916,166.105653 C19.5522138,165.791333 19.6528169,165.598725 19.7545916,165.447631 C19.5277832,165.296627 18.4515037,163.411384 18.3768138,163.473565 C18.2686409,163.261833 18.1848321,163.171948 18.3768138,162.815543 C18.1040398,163.05941 18.098496,163.056388 18.3768138,162.815543 C18.0446617,163.029112 17.990936,163.011833 17.6879249,162.815543 C17.8152474,162.982284 17.6751042,162.997472 17.6879249,162.815543 C17.3822899,163.093401 17.2320102,163.171121 16.999036,163.473565 C16.9335978,163.3706 16.7746221,163.487657 16.3101471,163.473565 C16.3085106,163.84038 15.9974073,164.087384 15.6212583,164.131587 C15.3556887,164.570028 15.0256986,164.807113 14.9323694,164.789609 C14.4852082,165.117605 14.2959863,165.212011 14.2434805,165.447631 C13.8916715,165.361484 13.6731818,165.420478 13.5545916,165.447631 C13.4120267,165.420478 13.3836285,165.420478 13.5545916,165.447631 C13.321098,165.415131 13.2909606,165.411334 13.5545916,165.447631 C13.2324792,165.401597 13.2038908,165.395553 12.8657027,165.447631 C13.1477193,165.381218 13.1201092,165.374425 12.8657027,165.447631 C12.9862706,165.330593 12.8866458,165.286786 12.8657027,165.447631 C12.6064952,165.134911 12.4386603,165.015632 12.1768138,164.789609 C11.9677932,164.630442 11.6932679,164.340406 11.4879249,164.131587 C11.1978614,163.725595 10.9770889,163.399296 10.799036,162.815543 C11.0095362,163.381835 11.2587341,163.684811 11.4879249,164.131587 C11.8016975,164.243728 12.0976641,164.502794 12.1768138,164.789609 C12.578722,164.828319 12.7457145,164.924997 12.8657027,164.789609 C13.0908142,165.071449 13.2680789,165.119878 13.5545916,164.789609 C13.7729696,165.067006 14.1100797,164.8729 14.2434805,164.789609 C14.7304385,164.440107 15.0225462,164.187085 15.6212583,164.131587 L16.3101471,162.815543 C16.3274246,162.986133 16.4753944,162.853139 16.3101471,162.815543 C16.8125317,162.580538 17.0056125,162.451392 16.999036,162.157521 C17.4567775,162.254936 17.7225795,162.18778 17.6879249,162.157521 C18.149939,162.211129 18.2940226,162.239076 18.3768138,162.157521 C18.4997128,162.315427 18.5670533,162.345648 18.3768138,162.157521 C18.6651019,162.400793 18.6968427,162.420423 19.0657027,162.157521 C18.7458942,162.454414 18.7625255,162.466502 19.0657027,162.157521 L19.0657027,162.815543 C19.6368922,162.692249 20.4053021,163.493701 20.4434805,164.131587 C20.9379932,163.570672 21.488783,163.135684 22.5101471,162.815543 C22.4169569,162.960381 22.428914,162.851692 22.5101471,162.815543 C21.9389698,162.684784 21.1088446,162.03748 21.1323694,162.157521 C20.7756749,161.687779 20.5699304,161.467224 20.4434805,161.499499 C20.6704248,161.018494 20.6839581,160.763199 20.4434805,160.841477 C20.698198,160.225436 20.6965403,159.935401 20.4434805,159.525433 C20.6522988,159.071416 20.5850399,158.492094 20.4434805,158.209389 C20.300052,157.692992 20.169556,157.436845 19.7545916,157.551367 C19.9487836,157.220913 19.9226681,157.199759 19.7545916,156.893345 L19.7545916,156.893345 L19.7545916,156.893345 L19.0657027,156.893345 C19.0252567,156.508597 18.7791297,156.330401 18.3768138,156.235323 L18.3768138,155.577301 C18.095398,155.845511 18.0343894,155.800103 17.6879249,155.577301 C17.9457434,155.726929 17.9173452,155.702004 17.6879249,155.577301 C17.8659023,155.646859 17.8404933,155.614392 17.6879249,155.577301 C17.8444609,155.613643 17.8714461,155.642339 17.6879249,155.577301 C17.926775,155.692189 17.9569125,155.714841 17.6879249,155.577301 C18.050287,155.779053 18.1159698,155.81901 18.3768138,155.577301 L18.3768138,156.235323 C18.8416601,156.242789 19.1043913,156.399159 19.0657027,156.235323 L19.7545916,156.893345 L19.7545916,156.893345 L19.7545916,156.893345 C20.075312,157.018412 20.1102051,157.042666 20.4434805,156.893345 C20.4021498,157.280578 20.5731642,157.558526 20.4434805,157.551367 C20.9695438,158.405902 21.0953928,159.005707 21.1323694,159.525433 C21.2275465,159.90141 21.2576839,160.201338 21.1323694,160.183455 C21.2924412,160.704386 21.3027135,160.902186 21.1323694,160.841477 C21.6975984,161.248942 22.1795531,161.577515 22.5101471,161.499499 C22.3070326,160.997444 22.0315562,160.483831 21.8212583,160.183455 C21.6691186,159.446791 21.8273878,158.672614 22.5101471,158.209389 C23.3705668,157.917318 24.1816964,158.238297 24.5768138,158.867411 C24.4982348,158.710376 24.5971802,158.483777 24.5768138,157.551367 C24.4388839,157.010948 25.0522042,156.784349 25.9545916,156.893345 C25.7050646,155.991291 26.2986012,155.991291 25.9545916,156.235323 C26.2986012,155.991291 26.8921107,155.991291 26.6434805,156.893345 C27.5449983,156.784349 28.1583186,157.010948 28.0212583,157.551367 C28.0000222,158.483777 28.0989405,158.710376 28.0212583,158.867411 C28.415506,158.238297 29.2266357,157.917318 30.0879249,158.209389 C30.7698147,158.672614 30.9280838,159.446791 30.7768138,160.183455 C30.5656463,160.483831 30.2903329,160.997444 30.0879249,161.499499 C30.4177309,161.577515 30.8996584,161.248942 31.4657027,160.841477 C31.294489,160.902186 31.3048428,160.703534 31.4657027,160.183455 C31.3396001,160.201338 31.369656,159.90141 31.4657027,159.525433 C31.5026793,159.005707 31.6285283,158.405902 32.1545916,157.551367 C32.0242013,157.558526 32.1959223,157.280578 32.1545916,156.893345 C32.4870789,157.042666 32.5227601,157.018412 32.8434805,156.893345 L32.8434805,156.893345 L32.8434805,156.893345 L33.5323694,156.235323 C33.4928927,156.399159 33.756412,156.242789 34.2212583,156.235323 L34.2212583,155.577301 C34.4821023,155.81901 34.5470785,155.779053 34.9101471,155.577301 C34.6403715,155.714841 34.671297,155.692189 34.9101471,155.577301 C34.726626,155.642339 34.7536111,155.613643 34.9101471,155.577301 C34.7567091,155.614392 34.7321698,155.646859 34.9101471,155.577301 C34.6807269,155.702004 34.6515134,155.726929 34.9101471,155.577301 C34.5636827,155.800103 34.5018859,155.845511 34.2212583,155.577301 L34.2212583,156.235323 C33.8189424,156.330401 33.5728153,156.508597 33.5323694,156.893345 L32.8434805,156.893345 L32.8434805,156.893345 L32.8434805,156.893345 C32.6746159,157.199759 32.6485004,157.220913 32.8434805,157.551367 C32.4277279,157.436845 32.29802,157.692992 32.1545916,158.209389 C32.0122441,158.492094 31.9450667,159.071416 32.1545916,159.525433 C31.9015318,159.935401 31.8998741,160.225436 32.1545916,160.841477 C31.914114,160.763199 31.9267777,161.018494 32.1545916,161.499499 C32.0273536,161.467224 31.8215276,161.687779 31.4657027,162.157521 C31.4883579,162.03748 30.6583142,162.684784 30.0879249,162.815543 C30.1684515,162.851692 30.1803271,162.960381 30.0879249,162.815543 C31.1085009,163.135684 31.6592908,163.570672 32.1545916,164.131587 C32.1919547,163.493701 32.9611799,162.690828 33.5323694,162.815543 L33.5323694,162.157521 C33.8355465,162.466502 33.8521779,162.454414 33.5323694,162.157521 C33.9005228,162.420423 33.9329701,162.400793 34.2212583,162.157521 C34.0310188,162.345648 34.0975712,162.315427 34.2212583,162.157521 C34.3040494,162.239076 34.447345,162.211129 34.9101471,162.157521 C34.875411,162.18778 35.140588,162.254936 35.599036,162.157521 C35.5924596,162.451392 35.7854589,162.580538 36.2879249,162.815543 C36.1226777,162.853139 36.2697778,162.986133 36.2879249,162.815543 L36.9768138,164.131587 C37.5747378,164.187085 37.8676336,164.440107 38.3545916,164.789609 C38.4872586,164.8729 38.8251024,165.067006 39.0434805,164.789609 C39.329205,165.119878 39.5065513,165.071449 39.7323694,164.789609 C39.8515695,164.924997 40.0192685,164.828319 40.4212583,164.789609 C40.4996199,164.502794 40.795668,164.243728 41.1101471,164.131587 Z" id="icon-detection-w" fill="#FFFFFF" transform="translate(26.299036, 167.398180) rotate(-17.000000) translate(-26.299036, -167.398180) "></path>
                <g id="Group-8" transform="translate(96.236923, 0.000000)">
                    <g id="Group-108" transform="translate(5.000000, 12.000000)">
                        <path d="M73.2792176,49.0932509 L50.6046,49.0932509 C49.3281,49.0932509 48.2829529,48.0678491 48.2829529,46.8154652 L48.2829529,39.3071348 C48.2829529,38.0547509 49.3281,37.0313402 50.6046,37.0313402 L73.2792176,37.0313402 C74.5557176,37.0313402 75.6008647,38.0547509 75.6008647,39.3071348 L75.6008647,46.8154652 C75.6008647,48.0678491 74.5557176,49.0932509 73.2792176,49.0932509" id="Fill-1" fill="#EDA620"></path>
                        <g id="Group-5" transform="translate(0.000000, 40.227607)">
                            <mask id="mask-4" fill="white">
                                <use xlink:href="#path-3"></use>
                            </mask>
                            <g id="Clip-4"></g>
                            <path d="M112.402015,181.187699 L11.4083382,181.187699 C5.13339706,181.187699 0.00101470588,176.150288 0.00101470588,169.993896 L0.00101470588,11.7793777 C0.00101470588,5.62298482 5.13339706,0.585574107 11.4083382,0.585574107 L112.402015,0.585574107 C118.676956,0.585574107 123.811368,5.62298482 123.811368,11.7793777 L123.811368,169.993896 C123.811368,176.150288 118.676956,181.187699 112.402015,181.187699" id="Fill-3" fill="#EDA620" mask="url(#mask-4)"></path>
                        </g>
                        <path d="M109.730497,217.219322 L12.9113206,217.219322 C7.82561471,217.219322 3.66329118,213.135635 3.66329118,208.144019 L3.66329118,52.9360187 C3.66329118,47.9463937 7.82561471,43.8627063 12.9113206,43.8627063 L109.730497,43.8627063 C114.818232,43.8627063 118.980556,47.9463937 118.980556,52.9380098 L118.980556,208.144019 C118.980556,213.135635 114.818232,217.219322 109.730497,217.219322" id="Fill-6" fill="#FCBB2C"></path>
                        <path d="M10.6964206,119.372896 L10.6964206,61.7652259 C10.6964206,58.6591545 13.2615971,56.1424402 16.4274794,56.1424402 L107.383685,56.1424402 C110.547538,56.1424402 113.112715,58.6591545 113.112715,61.7632348 L113.112715,119.372896 C113.112715,122.478967 110.547538,124.995681 107.383685,124.995681 L16.4274794,124.995681 C13.2615971,124.995681 10.6964206,122.478967 10.6964206,119.372896" id="Fill-8" fill="#595959"></path>
                        <path d="M105.379235,120.8214 L18.4311176,120.8214 C16.5173824,120.8214 14.9506765,119.286284 14.9506765,117.406712 L14.9506765,63.7314089 C14.9506765,61.8518375 16.5173824,60.3167214 18.4311176,60.3167214 L105.379235,60.3167214 C107.292971,60.3167214 108.859676,61.8518375 108.859676,63.7314089 L108.859676,117.406712 C108.859676,119.286284 107.292971,120.8214 105.379235,120.8214" id="Fill-10" fill="#F2F2F2"></path>
                        <path d="M61.9053794,95.61125 C44.9739971,95.61125 30.0963794,104.192768 21.5119676,117.156634 L102.298791,117.156634 C93.7143794,104.192768 78.8347324,95.61125 61.9053794,95.61125" id="Fill-12" fill="#989898"></path>
                        <mask id="mask-6" fill="white">
                            <use xlink:href="#path-5"></use>
                        </mask>
                        <g id="Clip-15"></g>
                        <polygon id="Fill-14" fill="#595959" mask="url(#mask-6)" points="20.4909706 72.8075089 21.1911176 72.8075089 21.1911176 64.8989732 20.4909706 64.8989732"></polygon>
                        <polygon id="Fill-16" fill="#595959" mask="url(#mask-6)" points="21.6091765 67.1906964 22.3113529 67.1906964 22.3113529 64.8989732 21.6091765 64.8989732"></polygon>
                        <polygon id="Fill-17" fill="#595959" mask="url(#mask-6)" points="22.7902941 67.1926875 23.4924706 67.1926875 23.4924706 64.9009643 22.7902941 64.9009643"></polygon>
                        <polygon id="Fill-18" fill="#595959" mask="url(#mask-6)" points="24.1053529 67.1986607 24.8075294 67.1986607 24.8075294 64.9069375 24.1053529 64.9069375"></polygon>
                        <polygon id="Fill-19" fill="#595959" mask="url(#mask-6)" points="25.2661765 67.1906964 25.9663235 67.1906964 25.9663235 64.8989732 25.2661765 64.8989732"></polygon>
                        <polygon id="Fill-20" fill="#595959" mask="url(#mask-6)" points="32.3691176 72.8075089 33.0692647 72.8075089 33.0692647 64.8989732 32.3691176 64.8989732"></polygon>
                        <polygon id="Fill-21" fill="#595959" mask="url(#mask-6)" points="31.2509118 67.1906964 31.9530882 67.1906964 31.9530882 64.8989732 31.2509118 64.8989732"></polygon>
                        <polygon id="Fill-22" fill="#595959" mask="url(#mask-6)" points="30.0697941 67.1926875 30.7719706 67.1926875 30.7719706 64.9009643 30.0697941 64.9009643"></polygon>
                        <polygon id="Fill-23" fill="#595959" mask="url(#mask-6)" points="28.7547353 67.1986607 29.4548824 67.1986607 29.4548824 64.9069375 28.7547353 64.9069375"></polygon>
                        <polygon id="Fill-24" fill="#595959" mask="url(#mask-6)" points="27.5939118 67.1906964 28.2960882 67.1906964 28.2960882 64.8989732 27.5939118 64.8989732"></polygon>
                        <polygon id="Fill-25" fill="#595959" mask="url(#mask-6)" points="26.4330882 68.4012679 27.1332353 68.4012679 27.1332353 64.920875 26.4330882 64.920875"></polygon>
                        <polygon id="Fill-26" fill="#595959" mask="url(#mask-6)" points="33.5218235 67.1906964 34.2219706 67.1906964 34.2219706 64.8989732 33.5218235 64.8989732"></polygon>
                        <polygon id="Fill-27" fill="#595959" mask="url(#mask-6)" points="34.7049706 67.1926875 35.4051176 67.1926875 35.4051176 64.9009643 34.7049706 64.9009643"></polygon>
                        <polygon id="Fill-28" fill="#595959" mask="url(#mask-6)" points="36.0200294 67.1986607 36.7201765 67.1986607 36.7201765 64.9069375 36.0200294 64.9069375"></polygon>
                        <polygon id="Fill-29" fill="#595959" mask="url(#mask-6)" points="37.1788235 67.1906964 37.881 67.1906964 37.881 64.8989732 37.1788235 64.8989732"></polygon>
                        <polygon id="Fill-30" fill="#595959" mask="url(#mask-6)" points="44.2817647 72.8075089 44.9839412 72.8075089 44.9839412 64.8989732 44.2817647 64.8989732"></polygon>
                        <polygon id="Fill-31" fill="#595959" mask="url(#mask-6)" points="43.1655882 67.1906964 43.8657353 67.1906964 43.8657353 64.8989732 43.1655882 64.8989732"></polygon>
                        <polygon id="Fill-32" fill="#595959" mask="url(#mask-6)" points="41.9824412 67.1926875 42.6825882 67.1926875 42.6825882 64.9009643 41.9824412 64.9009643"></polygon>
                        <polygon id="Fill-33" fill="#595959" mask="url(#mask-6)" points="40.6694118 67.1986607 41.3695588 67.1986607 41.3695588 64.9069375 40.6694118 64.9069375"></polygon>
                        <polygon id="Fill-34" fill="#595959" mask="url(#mask-6)" points="39.5085882 67.1906964 40.2107647 67.1906964 40.2107647 64.8989732 39.5085882 64.8989732"></polygon>
                        <polygon id="Fill-35" fill="#595959" mask="url(#mask-6)" points="38.3477647 68.4012679 39.0499412 68.4012679 39.0499412 64.920875 38.3477647 64.920875"></polygon>
                        <polygon id="Fill-36" fill="#595959" mask="url(#mask-6)" points="45.4365 67.1906964 46.1366471 67.1906964 46.1366471 64.8989732 45.4365 64.8989732"></polygon>
                        <polygon id="Fill-37" fill="#595959" mask="url(#mask-6)" points="46.6176176 67.1926875 47.3197941 67.1926875 47.3197941 64.9009643 46.6176176 64.9009643"></polygon>
                        <polygon id="Fill-38" fill="#595959" mask="url(#mask-6)" points="47.9326765 67.1986607 48.6348529 67.1986607 48.6348529 64.9069375 47.9326765 64.9069375"></polygon>
                        <polygon id="Fill-39" fill="#595959" mask="url(#mask-6)" points="49.0935 67.1906964 49.7936471 67.1906964 49.7936471 64.8989732 49.0935 64.8989732"></polygon>
                        <polygon id="Fill-40" fill="#595959" mask="url(#mask-6)" points="56.1964412 72.8075089 56.8965882 72.8075089 56.8965882 64.8989732 56.1964412 64.8989732"></polygon>
                        <polygon id="Fill-41" fill="#595959" mask="url(#mask-6)" points="55.0782353 67.1906964 55.7804118 67.1906964 55.7804118 64.8989732 55.0782353 64.8989732"></polygon>
                        <polygon id="Fill-42" fill="#595959" mask="url(#mask-6)" points="53.8971176 67.1926875 54.5972647 67.1926875 54.5972647 64.9009643 53.8971176 64.9009643"></polygon>
                        <polygon id="Fill-43" fill="#595959" mask="url(#mask-6)" points="52.5820588 67.1986607 53.2822059 67.1986607 53.2822059 64.9069375 52.5820588 64.9069375"></polygon>
                        <polygon id="Fill-44" fill="#595959" mask="url(#mask-6)" points="51.4212353 67.1906964 52.1234118 67.1906964 52.1234118 64.8989732 51.4212353 64.8989732"></polygon>
                        <polygon id="Fill-45" fill="#595959" mask="url(#mask-6)" points="50.2604118 68.4012679 50.9605588 68.4012679 50.9605588 64.920875 50.2604118 64.920875"></polygon>
                        <polygon id="Fill-46" fill="#595959" mask="url(#mask-6)" points="57.3511765 67.1906964 58.0513235 67.1906964 58.0513235 64.8989732 57.3511765 64.8989732"></polygon>
                        <polygon id="Fill-47" fill="#595959" mask="url(#mask-6)" points="58.5343235 67.1926875 59.2344706 67.1926875 59.2344706 64.9009643 58.5343235 64.9009643"></polygon>
                        <polygon id="Fill-48" fill="#595959" mask="url(#mask-6)" points="59.8453235 67.1986607 60.5454706 67.1986607 60.5454706 64.9069375 59.8453235 64.9069375"></polygon>
                        <polygon id="Fill-49" fill="#595959" mask="url(#mask-6)" points="61.0081765 67.1906964 61.7083235 67.1906964 61.7083235 64.8989732 61.0081765 64.8989732"></polygon>
                        <polygon id="Fill-50" fill="#595959" mask="url(#mask-6)" points="68.1090882 72.8075089 68.8112647 72.8075089 68.8112647 64.8989732 68.1090882 64.8989732"></polygon>
                        <polygon id="Fill-51" fill="#595959" mask="url(#mask-6)" points="66.9929118 67.1906964 67.6930588 67.1906964 67.6930588 64.8989732 66.9929118 64.8989732"></polygon>
                        <polygon id="Fill-52" fill="#595959" mask="url(#mask-6)" points="65.8097647 67.1926875 66.5099118 67.1926875 66.5099118 64.9009643 65.8097647 64.9009643"></polygon>
                        <polygon id="Fill-53" fill="#595959" mask="url(#mask-6)" points="64.4967353 67.1986607 65.1968824 67.1986607 65.1968824 64.9069375 64.4967353 64.9069375"></polygon>
                        <polygon id="Fill-54" fill="#595959" mask="url(#mask-6)" points="63.3359118 67.1906964 64.0360588 67.1906964 64.0360588 64.8989732 63.3359118 64.8989732"></polygon>
                        <polygon id="Fill-55" fill="#595959" mask="url(#mask-6)" points="62.1750882 68.4012679 62.8752353 68.4012679 62.8752353 64.920875 62.1750882 64.920875"></polygon>
                        <polygon id="Fill-56" fill="#595959" mask="url(#mask-6)" points="69.2638235 67.1906964 69.9639706 67.1906964 69.9639706 64.8989732 69.2638235 64.8989732"></polygon>
                        <polygon id="Fill-57" fill="#595959" mask="url(#mask-6)" points="70.4469706 67.1926875 71.1471176 67.1926875 71.1471176 64.9009643 70.4469706 64.9009643"></polygon>
                        <polygon id="Fill-58" fill="#595959" mask="url(#mask-6)" points="71.76 67.1986607 72.4621765 67.1986607 72.4621765 64.9069375 71.76 64.9069375"></polygon>
                        <polygon id="Fill-59" fill="#595959" mask="url(#mask-6)" points="72.9208235 67.1906964 73.6209706 67.1906964 73.6209706 64.8989732 72.9208235 64.8989732"></polygon>
                        <polygon id="Fill-60" fill="#595959" mask="url(#mask-6)" points="80.0237647 72.8075089 80.7239118 72.8075089 80.7239118 64.8989732 80.0237647 64.8989732"></polygon>
                        <polygon id="Fill-61" fill="#595959" mask="url(#mask-6)" points="78.9075882 67.1906964 79.6077353 67.1906964 79.6077353 64.8989732 78.9075882 64.8989732"></polygon>
                        <polygon id="Fill-62" fill="#595959" mask="url(#mask-6)" points="77.7244412 67.1926875 78.4245882 67.1926875 78.4245882 64.9009643 77.7244412 64.9009643"></polygon>
                        <polygon id="Fill-63" fill="#595959" mask="url(#mask-6)" points="76.4093824 67.1986607 77.1095294 67.1986607 77.1095294 64.9069375 76.4093824 64.9069375"></polygon>
                        <polygon id="Fill-64" fill="#595959" mask="url(#mask-6)" points="75.2485588 67.1906964 75.9507353 67.1906964 75.9507353 64.8989732 75.2485588 64.8989732"></polygon>
                        <polygon id="Fill-65" fill="#595959" mask="url(#mask-6)" points="74.0897647 68.4012679 74.7899118 68.4012679 74.7899118 64.920875 74.0897647 64.920875"></polygon>
                        <polygon id="Fill-66" fill="#595959" mask="url(#mask-6)" points="81.1785 67.1906964 81.8786471 67.1906964 81.8786471 64.8989732 81.1785 64.8989732"></polygon>
                        <polygon id="Fill-67" fill="#595959" mask="url(#mask-6)" points="82.3596176 67.1926875 83.0597647 67.1926875 83.0597647 64.9009643 82.3596176 64.9009643"></polygon>
                        <polygon id="Fill-68" fill="#595959" mask="url(#mask-6)" points="83.6746765 67.1986607 84.3768529 67.1986607 84.3768529 64.9069375 83.6746765 64.9069375"></polygon>
                        <polygon id="Fill-69" fill="#595959" mask="url(#mask-6)" points="84.8334706 67.1906964 85.5356471 67.1906964 85.5356471 64.8989732 84.8334706 64.8989732"></polygon>
                        <polygon id="Fill-70" fill="#595959" mask="url(#mask-6)" points="91.9364118 72.8075089 92.6385882 72.8075089 92.6385882 64.8989732 91.9364118 64.8989732"></polygon>
                        <polygon id="Fill-71" fill="#595959" mask="url(#mask-6)" points="90.8202353 67.1906964 91.5203824 67.1906964 91.5203824 64.8989732 90.8202353 64.8989732"></polygon>
                        <polygon id="Fill-72" fill="#595959" mask="url(#mask-6)" points="89.6391176 67.1926875 90.3392647 67.1926875 90.3392647 64.9009643 89.6391176 64.9009643"></polygon>
                        <polygon id="Fill-73" fill="#595959" mask="url(#mask-6)" points="88.3240588 67.1986607 89.0262353 67.1986607 89.0262353 64.9069375 88.3240588 64.9069375"></polygon>
                        <polygon id="Fill-74" fill="#595959" mask="url(#mask-6)" points="87.1632353 67.1906964 87.8633824 67.1906964 87.8633824 64.8989732 87.1632353 64.8989732"></polygon>
                        <polygon id="Fill-75" fill="#595959" mask="url(#mask-6)" points="86.0024118 68.4012679 86.7025588 68.4012679 86.7025588 64.920875 86.0024118 64.920875"></polygon>
                        <polygon id="Fill-76" fill="#595959" mask="url(#mask-6)" points="93.0911471 67.1906964 93.7933235 67.1906964 93.7933235 64.8989732 93.0911471 64.8989732"></polygon>
                        <polygon id="Fill-77" fill="#595959" mask="url(#mask-6)" points="94.2742941 67.1926875 94.9744412 67.1926875 94.9744412 64.9009643 94.2742941 64.9009643"></polygon>
                        <polygon id="Fill-78" fill="#595959" mask="url(#mask-6)" points="95.5873235 67.1986607 96.2874706 67.1986607 96.2874706 64.9069375 95.5873235 64.9069375"></polygon>
                        <polygon id="Fill-79" fill="#595959" mask="url(#mask-6)" points="96.7481471 67.1906964 97.4482941 67.1906964 97.4482941 64.8989732 96.7481471 64.8989732"></polygon>
                        <polygon id="Fill-80" fill="#595959" mask="url(#mask-6)" points="103.853118 72.8075089 104.553265 72.8075089 104.553265 64.8989732 103.853118 64.8989732"></polygon>
                        <polygon id="Fill-81" fill="#595959" mask="url(#mask-6)" points="102.734912 67.1906964 103.435059 67.1906964 103.435059 64.8989732 102.734912 64.8989732"></polygon>
                        <polygon id="Fill-82" fill="#595959" mask="url(#mask-6)" points="101.551765 67.1926875 102.251912 67.1926875 102.251912 64.9009643 101.551765 64.9009643"></polygon>
                        <polygon id="Fill-83" fill="#595959" mask="url(#mask-6)" points="100.238735 67.1986607 100.938882 67.1986607 100.938882 64.9069375 100.238735 64.9069375"></polygon>
                        <polygon id="Fill-84" fill="#595959" mask="url(#mask-6)" points="99.0779118 67.1906964 99.7800882 67.1906964 99.7800882 64.8989732 99.0779118 64.8989732"></polygon>
                        <polygon id="Fill-85" fill="#595959" mask="url(#mask-6)" points="97.9170882 68.4012679 98.6172353 68.4012679 98.6172353 64.920875 97.9170882 64.920875"></polygon>
                        <path d="M62.0204471,114.651866 L61.7911235,114.651866 C61.0483588,114.651866 60.4456235,114.006759 60.4456235,113.208339 L61.1680941,69.4545446 C61.3771235,68.6541339 62.4344471,68.6541339 62.6434765,69.4545446 L63.3659471,113.208339 C63.3659471,114.006759 62.7632118,114.651866 62.0204471,114.651866" id="Fill-86" fill="#E04425" mask="url(#mask-6)"></path>
                        <path d="M61.9053794,104.229802 C51.7481735,104.229802 42.8207912,109.378712 37.6721735,117.155837 L86.1385853,117.155837 C80.9879382,109.378712 72.0625853,104.229802 61.9053794,104.229802" id="Fill-87" fill="#595959" mask="url(#mask-6)"></path>
                        <path d="M66.0703412,163.143415 C66.0703412,177.939067 53.8451647,189.933281 38.7646059,189.933281 C23.6840471,189.933281 11.4588706,177.939067 11.4588706,163.143415 C11.4588706,148.347763 23.6840471,136.353549 38.7646059,136.353549 C53.8451647,136.353549 66.0703412,148.347763 66.0703412,163.143415" id="Fill-88" fill="#EDA620" mask="url(#mask-6)"></path>
                        <path d="M63.1589471,163.143415 C63.1589471,176.362138 52.2386824,187.078085 38.7633882,187.078085 C25.2921529,187.078085 14.3698588,176.362138 14.3698588,163.143415 C14.3698588,149.924692 25.2921529,139.208746 38.7633882,139.208746 C52.2386824,139.208746 63.1589471,149.924692 63.1589471,163.143415" id="Fill-89" fill="#E04425" mask="url(#mask-6)"></path>
                        <path d="M21.0734118,163.143415 C21.0734118,171.233138 26.703,178.034638 34.3275,179.977924 L34.3275,146.306915 C26.703,148.252192 21.0734118,155.053692 21.0734118,163.143415" id="Fill-90" fill="#CC3927" mask="url(#mask-6)"></path>
                        <path d="M56.5355559,163.143415 C56.5355559,155.053692 50.9059676,148.252192 43.2814676,146.306915 L43.2814676,179.977924 C50.9059676,178.034638 56.5355559,171.233138 56.5355559,163.143415" id="Fill-91" fill="#CC3927" mask="url(#mask-6)"></path>
                        <path d="M55.7408382,210.761879 L19.4590147,210.761879 C16.0536618,210.761879 13.2916324,208.054022 13.2916324,204.713004 C13.2916324,201.371987 16.0536618,198.666121 19.4590147,198.666121 L55.7408382,198.666121 C59.1461912,198.666121 61.9061912,201.371987 61.9061912,204.713004 C61.9061912,208.054022 59.1461912,210.761879 55.7408382,210.761879" id="Fill-92" fill="#EDA620" mask="url(#mask-6)"></path>
                        <path d="M43.7427529,210.761879 L21.7337824,210.761879 C18.3426353,210.761879 15.5684294,208.040085 15.5684294,204.713004 C15.5684294,201.387915 18.3426353,198.666121 21.7337824,198.666121 L43.7427529,198.666121 C47.1339,198.666121 49.9081059,201.387915 49.9081059,204.713004 C49.9081059,208.040085 47.1339,210.761879 43.7427529,210.761879" id="Fill-93" fill="#595959" mask="url(#mask-6)"></path>
                        <polygon id="Fill-94" fill="#989898" mask="url(#mask-6)" points="30.2037353 210.760884 35.2265294 210.760884 35.2265294 198.665125 30.2037353 198.665125"></polygon>
                        <path d="M103.866106,210.761879 L82.3279588,210.761879 C78.9226059,210.761879 76.1626059,208.054022 76.1626059,204.713004 C76.1626059,201.371987 78.9226059,198.666121 82.3279588,198.666121 L103.866106,198.666121 C107.271459,198.666121 110.031459,201.371987 110.031459,204.713004 C110.031459,208.054022 107.271459,210.761879 103.866106,210.761879" id="Fill-95" fill="#EDA620" mask="url(#mask-6)"></path>
                        <path d="M99.0255529,210.761879 L85.6598471,210.761879 C82.2687,210.761879 79.4944941,208.040085 79.4944941,204.713004 C79.4944941,201.387915 82.2687,198.666121 85.6598471,198.666121 L99.0255529,198.666121 C102.4167,198.666121 105.190906,201.387915 105.190906,204.713004 C105.190906,208.040085 102.4167,210.761879 99.0255529,210.761879" id="Fill-96" fill="#595959" mask="url(#mask-6)"></path>
                        <polygon id="Fill-97" fill="#989898" mask="url(#mask-6)" points="89.8298824 210.760884 94.8526765 210.760884 94.8526765 198.665125 89.8298824 198.665125"></polygon>
                        <path d="M85.8313324,139.550015 C85.8313324,142.660069 83.2620971,145.178774 80.0941853,145.178774 C76.9242441,145.178774 74.3550088,142.660069 74.3550088,139.550015 C74.3550088,136.439962 76.9242441,133.921256 80.0941853,133.921256 C83.2620971,133.921256 85.8313324,136.439962 85.8313324,139.550015" id="Fill-98" fill="#989898" mask="url(#mask-6)"></path>
                        <path d="M103.818618,139.550015 C103.818618,142.660069 101.249382,145.178774 98.0814706,145.178774 C94.9115294,145.178774 92.3422941,142.660069 92.3422941,139.550015 C92.3422941,136.439962 94.9115294,133.921256 98.0814706,133.921256 C101.249382,133.921256 103.818618,136.439962 103.818618,139.550015" id="Fill-99" fill="#989898" mask="url(#mask-6)"></path>
                        <path d="M82.4046706,164.333279 L74.5407,164.333279 C73.8425824,164.333279 73.2723176,163.771797 73.2723176,163.086869 L73.2723176,154.495396 C73.2723176,153.810467 73.8425824,153.250976 74.5407,153.250976 L82.4046706,153.250976 C83.1027882,153.250976 83.6730529,153.810467 83.6730529,154.495396 L83.6730529,163.086869 C83.6730529,163.771797 83.1027882,164.333279 82.4046706,164.333279" id="Fill-100" fill="#666667" mask="url(#mask-6)"></path>
                        <path d="M97.0288147,164.333279 L89.1648441,164.333279 C88.4667265,164.333279 87.8964618,163.771797 87.8964618,163.086869 L87.8964618,154.495396 C87.8964618,153.810467 88.4667265,153.250976 89.1648441,153.250976 L97.0288147,153.250976 C97.7269324,153.250976 98.2971971,153.810467 98.2971971,154.495396 L98.2971971,163.086869 C98.2971971,163.771797 97.7269324,164.333279 97.0288147,164.333279" id="Fill-101" fill="#666667" mask="url(#mask-6)"></path>
                        <path d="M111.431753,164.333279 L103.567782,164.333279 C102.869665,164.333279 102.2994,163.771797 102.2994,163.086869 L102.2994,154.495396 C102.2994,153.810467 102.869665,153.250976 103.567782,153.250976 L111.431753,153.250976 C112.129871,153.250976 112.700135,153.810467 112.700135,154.495396 L112.700135,163.086869 C112.700135,163.771797 112.129871,164.333279 111.431753,164.333279" id="Fill-102" fill="#666667" mask="url(#mask-6)"></path>
                        <path d="M82.4046706,179.645614 L74.5407,179.645614 C73.8425824,179.645614 73.2723176,179.086123 73.2723176,178.401195 L73.2723176,169.809721 C73.2723176,169.124793 73.8425824,168.565302 74.5407,168.565302 L82.4046706,168.565302 C83.1027882,168.565302 83.6730529,169.124793 83.6730529,169.809721 L83.6730529,178.401195 C83.6730529,179.086123 83.1027882,179.645614 82.4046706,179.645614" id="Fill-103" fill="#666667" mask="url(#mask-6)"></path>
                        <path d="M97.0288147,179.645614 L89.1648441,179.645614 C88.4667265,179.645614 87.8964618,179.086123 87.8964618,178.401195 L87.8964618,169.809721 C87.8964618,169.124793 88.4667265,168.565302 89.1648441,168.565302 L97.0288147,168.565302 C97.7269324,168.565302 98.2971971,169.124793 98.2971971,169.809721 L98.2971971,178.401195 C98.2971971,179.086123 97.7269324,179.645614 97.0288147,179.645614" id="Fill-104" fill="#666667" mask="url(#mask-6)"></path>
                        <path d="M111.431753,179.645614 L103.567782,179.645614 C102.869665,179.645614 102.2994,179.086123 102.2994,178.401195 L102.2994,169.809721 C102.2994,169.124793 102.869665,168.565302 103.567782,168.565302 L111.431753,168.565302 C112.129871,168.565302 112.700135,169.124793 112.700135,169.809721 L112.700135,178.401195 C112.700135,179.086123 112.129871,179.645614 111.431753,179.645614" id="Fill-105" fill="#666667" mask="url(#mask-6)"></path>
                        <polygon id="Fill-106" fill="#FCBB2C" mask="url(#mask-6)" points="58.4815588 37.0299464 65.3998235 37.0299464 65.3998235 8.35851786 58.4815588 8.35851786"></polygon>
                        <path d="M70.4244441,8.35891607 C70.4244441,12.9742196 66.6111794,16.7174339 61.9049735,16.7174339 C57.1987676,16.7174339 53.3855029,12.9742196 53.3855029,8.35891607 C53.3855029,3.7436125 57.1987676,0.000398214286 61.9049735,0.000398214286 C66.6111794,0.000398214286 70.4244441,3.7436125 70.4244441,8.35891607" id="Fill-107" fill="#FCBB2C" mask="url(#mask-6)"></path>
                    </g>
                    <g id="Group-6" transform="translate(87.000000, 0.000000)" stroke="#ECECEC" stroke-linecap="round" stroke-width="3.24">
                        <path d="M10.6028418,21.4783575 C7.9897301,17.7373478 4.3362295,15.372709 0.325197873,15.3114681" id="Path" transform="translate(5.464020, 18.394913) rotate(59.000000) translate(-5.464020, -18.394913) "></path>
                        <path d="M8.44389598,22.4961996 L8.44389598,22.4961996 C15.7133843,22.4001914 22.285663,19.2200491 26.8415309,14.2461163" id="Path" transform="translate(17.642713, 18.371158) rotate(-65.000000) translate(-17.642713, -18.371158) "></path>
                        <path d="M14.7676084,5.18192321 C15.0004703,18.5552332 26.0568524,29.5852149 39.462729,29.8180768 L39.462729,29.8180768" id="Path" transform="translate(27.115169, 17.500000) rotate(-133.000000) translate(-27.115169, -17.500000) "></path>
                    </g>
                    <g id="Group-6-Copy" transform="translate(22.500000, 17.500000) scale(-1, 1) translate(-22.500000, -17.500000) " stroke="#ECECEC" stroke-linecap="round" stroke-width="3.24">
                        <path d="M10.6028418,21.4783575 C7.9897301,17.7373478 4.3362295,15.372709 0.325197873,15.3114681" id="Path" transform="translate(5.464020, 18.394913) rotate(59.000000) translate(-5.464020, -18.394913) "></path>
                        <path d="M8.44389598,22.4961996 L8.44389598,22.4961996 C15.7133843,22.4001914 22.285663,19.2200491 26.8415309,14.2461163" id="Path" transform="translate(17.642713, 18.371158) rotate(-65.000000) translate(-17.642713, -18.371158) "></path>
                        <path d="M14.7676084,5.18192321 C15.0004703,18.5552332 26.0568524,29.5852149 39.462729,29.8180768 L39.462729,29.8180768" id="Path" transform="translate(27.115169, 17.500000) rotate(-133.000000) translate(-27.115169, -17.500000) "></path>
                    </g>
                </g>
                <path d="M277.876686,165.464782 C277.396591,165.934984 276.914148,166.403258 276.449879,166.88941 C276.261802,167.086331 276.080822,167.111663 275.826072,167.05782 C275.076421,166.898948 274.322175,166.757278 273.565479,166.638646 C272.821444,166.52189 272.072406,166.434949 271.323827,166.353428 C271.233414,166.343629 271.117627,166.433854 271.038241,166.506149 C271.003679,166.537631 270.983258,166.58548 270.961203,166.643337 C270.933278,166.717143 270.970597,166.784121 271.047431,166.794285 C272.546936,166.993135 274.048535,167.192401 275.550083,167.391459 C275.626917,167.401623 275.696093,167.431438 275.704618,167.45776 C275.713144,167.484134 275.67317,167.54835 275.615277,167.601098 C275.563,167.648947 275.510518,167.696379 275.456147,167.741466 C274.885843,168.21589 274.29864,168.670559 273.746919,169.16651 C272.630458,170.170296 271.91542,171.411764 271.716062,172.934904 C271.693139,173.11009 271.69462,173.292572 271.712335,173.468644 C271.766093,174.005199 272.006242,174.27332 272.523861,174.255077 C272.570931,174.253409 272.617797,174.251481 272.664663,174.249343 C272.74216,174.245955 272.866523,174.253618 272.943357,174.264876 C274.702821,174.523042 276.487453,173.797645 277.576397,172.376614 C277.62408,172.314327 277.695502,172.237966 277.74201,172.216492 C277.788468,172.195069 277.886743,172.214615 277.959697,172.241407 C278.136746,172.306508 278.324006,172.33945 278.517289,172.343516 C278.594787,172.345184 278.71915,172.356703 278.796596,172.357745 C278.859492,172.358579 278.923257,172.350709 278.986766,172.33283 C279.253156,172.25793 279.447104,172.023219 279.491672,171.75588 C279.504588,171.67806 279.536649,171.560679 279.580605,171.495578 C279.588314,171.48411 279.596227,171.472643 279.603936,171.461176 C279.647892,171.396075 279.728912,171.298917 279.785171,171.244449 C279.865783,171.16642 279.948283,171.086464 280.033234,171.003953 C280.089494,170.949536 280.131561,170.969291 280.127579,171.048414 C280.075301,172.068775 280.02236,173.095912 279.970287,174.123101 C279.964263,174.241942 279.950938,174.361877 279.959872,174.479727 C280.02818,175.379059 280.035072,176.290326 280.192721,177.173343 C280.326223,177.921466 280.523693,178.682775 280.793044,179.383518 C281.094661,180.167814 281.62249,180.866575 282.088852,181.577326 C282.321293,181.931606 282.535457,181.952664 282.89951,181.729577 C282.90824,181.72426 282.91697,181.718735 282.925751,181.713419 C282.940352,181.704454 282.963887,181.704454 282.978437,181.713419 C282.987167,181.718944 282.995948,181.72426 283.004678,181.729577 C283.368782,181.952664 283.582895,181.931606 283.815387,181.577326 C284.281749,180.866575 284.809578,180.167814 285.111143,179.383518 C285.380699,178.682775 285.577965,177.921414 285.71167,177.173343 C285.869371,176.290379 285.876263,175.37885 285.944571,174.479727 C285.953556,174.361877 285.940231,174.241942 285.934156,174.123101 C285.88193,173.095912 285.829193,172.068775 285.776915,171.048414 C285.772984,170.969291 285.815051,170.949588 285.871311,171.003953 C285.956262,171.086464 286.038762,171.166212 286.119374,171.244449 C286.175633,171.298917 286.256449,171.396075 286.300354,171.461176 C286.308063,171.472643 286.315771,171.48411 286.32348,171.495578 C286.367385,171.560679 286.399497,171.67806 286.412617,171.756089 C286.457186,172.023219 286.651338,172.25819 286.917524,172.333039 C286.981084,172.350917 287.045001,172.358788 287.107745,172.357954 C287.185242,172.356859 287.309554,172.345184 287.387051,172.343724 C287.580386,172.33945 287.767646,172.306508 287.944695,172.241667 C288.017597,172.214824 288.115515,172.195069 288.162126,172.216752 C288.208788,172.238436 288.280057,172.314587 288.327944,172.376874 C289.416888,173.797645 291.201316,174.523042 292.96078,174.265085 C293.03746,174.253826 293.161976,174.246216 293.239474,174.249552 C293.28634,174.251689 293.333257,174.253618 293.380327,174.255285 C293.897945,174.273633 294.138095,174.005408 294.191853,173.468853 C294.209568,173.292572 294.210997,173.110298 294.188126,172.935112 C293.988563,171.411972 293.27373,170.170505 292.157269,169.166719 C291.6057,168.670768 291.018294,168.21615 290.44804,167.741674 C290.393721,167.696588 290.341188,167.648947 290.288911,167.601307 C290.231221,167.548558 290.190992,167.484603 290.199569,167.457968 C290.208095,167.431386 290.27722,167.401623 290.354104,167.391668 C291.855652,167.192401 293.357251,166.993343 294.856553,166.794494 C294.933386,166.78433 294.970654,166.717352 294.942729,166.643545 C294.920878,166.585741 294.900253,166.537892 294.86564,166.506358 C294.786509,166.434063 294.670723,166.34389 294.580105,166.353689 C293.831271,166.435105 293.082437,166.522099 292.338453,166.638854 C291.581706,166.757539 290.82746,166.899157 290.077861,167.058028 C289.82311,167.112028 289.64213,167.086539 289.454002,166.889618 C288.989683,166.403467 288.50729,165.935193 288.027195,165.464991 C287.796592,165.239141 287.558536,165.02158 287.329209,164.808292 C287.271928,164.755075 287.232516,164.695811 287.240276,164.675795 C287.249006,164.653226 287.251559,164.644313 287.256919,164.641759 C287.288571,164.626904 287.321296,164.6133 287.354837,164.603501 C287.878939,164.451249 288.372716,164.326623 288.818504,163.900048 C289.32969,163.410664 290.024511,163.119765 290.645,162.751881 C290.859572,162.624753 291.145363,162.576904 291.30051,162.402083 C291.53775,162.134535 291.707754,162.053119 291.974961,162.259995 C292.036632,162.307844 292.065579,162.290852 292.046026,162.214231 C291.998956,162.030915 291.958522,161.874024 291.927738,161.753828 C291.908134,161.67726 291.839009,161.581197 291.773407,161.539081 C291.744256,161.520369 291.71822,161.503533 291.695093,161.488887 C291.629491,161.446719 291.547246,161.469497 291.517023,161.542417 C291.462499,161.674914 291.409149,161.81893 291.307658,161.881426 C290.893828,162.137246 290.373912,162.177276 289.994135,162.519412 C289.985813,162.527022 289.975195,162.535987 289.964984,162.536821 C289.583369,162.571066 289.364457,162.880312 289.143503,163.121694 C288.82024,163.474671 288.529651,163.765205 288.001873,163.763694 C287.712764,163.762808 287.406553,163.92637 287.139142,164.074399 C286.899962,164.206636 286.730673,164.255579 286.541933,164.008464 C286.348445,163.755198 286.13229,163.519289 285.91787,163.283275 C285.574034,162.904132 285.270273,162.524103 285.299679,161.947518 C285.310962,161.726151 285.326992,161.587295 285.509453,161.445208 C286.231178,160.883165 286.693354,160.137753 286.909815,159.238421 C286.959387,159.032796 286.954996,158.813097 287.009163,158.609139 C287.116015,158.207635 287.303275,157.820153 287.355501,157.413384 C287.470317,156.517649 287.715674,155.702966 288.398651,155.080929 C288.415753,155.065396 288.425964,155.042202 288.440514,155.023698 C288.839385,154.523942 289.26077,154.063487 289.905866,153.883141 C290.308055,153.770659 290.321788,153.662817 290.032884,153.374263 C290.006285,153.347628 289.981219,153.318909 289.959573,153.292586 C289.921028,153.245832 289.843735,153.248334 289.785229,153.300249 C289.664644,153.40658 289.543803,153.513328 289.420716,153.622004 C289.362211,153.673658 289.299876,153.681372 289.281548,153.638788 C289.263425,153.596464 289.188225,153.580306 289.118028,153.614082 C288.812276,153.761277 288.649981,154.033672 288.484623,154.311228 C288.448376,154.372055 288.363374,154.402443 288.2676,154.439242 C288.195106,154.466867 288.102395,154.546824 288.058235,154.611873 C287.76203,155.047622 287.444995,155.513811 287.127144,155.981199 C287.083035,156.04604 287.002781,156.067723 286.948002,156.029256 C286.893274,155.990789 286.843039,156.023731 286.835789,156.102385 C286.765133,156.869271 286.696417,157.616351 286.627905,158.362128 C286.620604,158.440834 286.595589,158.489934 286.572054,158.471639 C286.548518,158.453344 286.4894,158.488005 286.436459,158.545914 C286.342982,158.648857 286.245064,158.74982 286.19488,158.871475 C285.929766,159.510973 285.563772,160.063217 285.038036,160.481765 C284.977029,160.5305 284.88054,160.522577 284.825149,160.467327 C284.579179,160.221931 284.337957,159.981175 284.08969,159.733642 C284.034248,159.67834 284.052218,159.634348 284.129664,159.635807 C284.200065,159.637319 284.26919,159.637945 284.337753,159.633462 C284.970699,159.592233 285.377942,159.085075 285.239846,158.456836 C285.104251,157.840324 284.916583,157.242316 284.175662,157.107891 C284.099441,157.094078 284.08821,157.052223 284.151923,157.007293 C284.549569,156.728279 284.901778,156.496904 285.208806,156.14179 C285.977397,155.253091 286.866216,154.473018 287.715776,153.652131 C287.772036,153.597715 287.866381,153.5949 287.910541,153.659794 C288.017955,153.817779 288.096524,154.037894 288.339379,154.076153 C288.416009,154.088245 288.473494,154.014699 288.468082,153.935837 C288.460373,153.823095 288.453736,153.715669 288.431171,153.611945 C288.363272,153.297642 288.312883,152.928455 287.925703,152.882065 C287.574923,152.83995 287.278923,152.98136 287.103711,153.348619 C287.011205,153.542829 286.840486,153.701857 286.690699,153.863073 C286.144951,154.450448 285.59568,155.034435 285.04161,155.61347 C284.930163,155.730018 284.797274,155.827592 284.665866,155.921413 C284.408869,156.10473 284.111796,156.244212 283.893088,156.465578 C283.660392,156.701227 283.42402,156.859472 283.140119,156.895802 C283.063234,156.905601 283.000134,156.90263 283.000134,156.901327 C283.000134,156.900024 282.989515,156.899816 282.976395,156.900649 C282.963274,156.901483 282.941832,156.901536 282.928508,156.900649 C282.915387,156.899763 282.904768,156.899763 282.904768,156.901327 C282.904768,156.902787 282.841872,156.905758 282.764783,156.895802 C282.480882,156.859472 282.24451,156.701018 282.011814,156.465578 C281.793106,156.244212 281.496084,156.104678 281.239036,155.921413 C281.107628,155.827592 280.974688,155.730018 280.863292,155.61347 C280.309222,155.034227 279.759952,154.450448 279.214254,153.863073 C279.064467,153.701857 278.893902,153.542777 278.801191,153.348619 C278.626031,152.98136 278.33003,152.83995 277.97925,152.882065 C277.592223,152.928455 277.54163,153.297642 277.473731,153.611945 C277.451268,153.715669 277.44458,153.823095 277.436871,153.935837 C277.43146,154.014752 277.488945,154.088297 277.565421,154.076153 C277.808276,154.038103 277.886795,153.817987 277.99431,153.659794 C278.038471,153.594692 278.132815,153.597715 278.189024,153.652131 C279.038686,154.473018 279.927454,155.253091 280.696045,156.14179 C281.003277,156.496904 281.355487,156.728539 281.752928,157.007293 C281.816692,157.051963 281.80541,157.094078 281.729189,157.107891 C280.988523,157.242316 280.800651,157.840324 280.665005,158.456836 C280.526909,159.085075 280.934102,159.592441 281.567098,159.633462 C281.635865,159.637945 281.704786,159.637319 281.775187,159.635807 C281.852684,159.634348 281.870604,159.678548 281.815161,159.733851 C281.566894,159.981644 281.325672,160.222348 281.079703,160.467535 C281.024311,160.522838 280.928077,160.530708 280.867019,160.481973 C280.341283,160.063477 279.975137,159.51139 279.710176,158.871683 C279.659787,158.750028 279.562073,158.649066 279.468545,158.546123 C279.41586,158.488266 279.35669,158.453604 279.332951,158.471899 C279.309211,158.490195 279.2844,158.441043 279.2771,158.362337 C279.208588,157.616508 279.139871,156.869428 279.069215,156.102593 C279.061915,156.023939 279.01173,155.991154 278.956951,156.029465 C278.902172,156.067723 278.821969,156.046248 278.777809,155.981407 C278.459958,155.513967 278.142924,155.047831 277.846514,154.612082 C277.802354,154.547241 277.709694,154.467284 277.6372,154.43945 C277.541375,154.402651 277.456373,154.372264 277.420177,154.311436 C277.254564,154.033933 277.092524,153.761486 276.786772,153.614342 C276.71678,153.580671 276.64158,153.596672 276.623252,153.638996 C276.60518,153.68132 276.542845,153.673867 276.484135,153.622213 C276.360793,153.513328 276.240003,153.406788 276.119622,153.300457 C276.061116,153.248803 275.983823,153.245988 275.945279,153.292847 C275.923632,153.319221 275.898617,153.347681 275.871968,153.374472 C275.582859,153.663025 275.596796,153.770868 275.999037,153.883401 C276.644132,154.063747 277.065517,154.52415 277.464388,155.023906 C277.479194,155.042358 277.489404,155.065605 277.506251,155.081137 C278.189228,155.702966 278.434636,156.517701 278.549197,157.413593 C278.60127,157.820413 278.788734,158.207896 278.895586,158.6094 C278.949753,158.813305 278.945362,159.033004 278.994934,159.23863 C279.211344,160.137961 279.67352,160.883373 280.395296,161.445416 C280.577757,161.587504 280.593839,161.726359 280.60507,161.947778 C280.634425,162.524312 280.330715,162.904341 279.986879,163.283484 C279.772766,163.519549 279.556508,163.755406 279.362816,164.008672 C279.174127,164.255736 279.004787,164.206896 278.765658,164.074608 C278.498196,163.926578 278.191832,163.763225 277.902927,163.763902 C277.375149,163.765362 277.08456,163.47488 276.761297,163.121902 C276.540292,162.880521 276.321176,162.571327 275.939561,162.537082 C275.92935,162.536196 275.918731,162.527283 275.91041,162.51962 C275.530888,162.177485 275.011023,162.137454 274.596887,161.881634 C274.495447,161.81893 274.442148,161.675122 274.387573,161.542678 C274.357606,161.469758 274.275105,161.447188 274.209503,161.489304 C274.186376,161.504159 274.160544,161.520786 274.131393,161.539498 C274.065791,161.581614 273.996615,161.677729 273.977062,161.754297 C273.946227,161.874441 273.905793,162.031332 273.858723,162.2147 C273.83917,162.291269 273.868117,162.308261 273.929788,162.260412 C274.196995,162.053484 274.366999,162.134952 274.604239,162.4025 C274.759438,162.577321 275.045177,162.625118 275.259749,162.75235 C275.880238,163.120026 276.57511,163.411186 277.086245,163.900465 C277.531982,164.327092 278.025861,164.451666 278.549912,164.60397 C278.583453,164.613769 278.616127,164.627112 278.647779,164.642228 C278.65319,164.644782 278.655692,164.653695 278.664422,164.676212 C278.672131,164.696228 278.63277,164.755335 278.575489,164.808709 C278.34555,165.021163 278.107289,165.238933 277.876686,165.464782 Z" id="Path" fill="#FFFFFF" fill-rule="nonzero" transform="translate(282.951969, 167.374879) rotate(-17.000000) translate(-282.951969, -167.374879) "></path>
            </g>
        </g>
    </g>
</svg>