<?xml version="1.0" encoding="UTF-8"?>
<svg width="15px" height="15px" viewBox="0 0 15 15" version="1.1" xmlns="http://www.w3.org/2000/svg" xmlns:xlink="http://www.w3.org/1999/xlink">
    <!-- Generator: Sketch 55.2 (78181) - https://sketchapp.com -->
    <title>Shape</title>
    <desc>Created with Sketch.</desc>
    <g id="扶뒬못" stroke="none" stroke-width="1" fill="none" fill-rule="evenodd">
        <g id="扶뒬못2" transform="translate(-133.000000, -2677.000000)" fill="#FFFFFF" fill-rule="nonzero">
            <g id="Group-7" transform="translate(127.000000, 2671.000000)">
                <g id="search" transform="translate(6.000000, 6.000000)">
                    <path d="M14.6853147,13.3333782 L10.7692308,9.4035404 C11.4685315,8.42108096 11.8881119,7.22807614 11.8881119,5.964914 C11.8881119,2.66663894 9.23076923,0 5.94407423,0 C2.65737922,0 0,2.66667564 0,5.964914 C0,9.26315236 2.65734266,11.929828 5.94403766,11.929828 C7.20277892,11.929828 8.39160839,11.5087739 9.37062937,10.8070172 L13.2867133,14.736855 C13.6363454,15.087715 14.2657343,15.087715 14.6853147,14.736855 L14.6853147,14.736855 C15.1048951,14.3158376 15.1048951,13.7543955 14.6853147,13.3333782 Z M5.94403766,10.5263512 C3.42655514,10.5263512 1.3986014,8.49123828 1.3986014,5.96495069 C1.3986014,3.4386264 3.42655514,1.40355019 5.94403766,1.40355019 C8.46152018,1.40355019 10.4894739,3.4386264 10.4894739,5.96495069 C10.4894739,8.49123828 8.46152018,10.5263512 5.94403766,10.5263512 Z" id="Shape"></path>
                </g>
            </g>
        </g>
    </g>
</svg>