<?xml version="1.0" encoding="UTF-8"?>
<svg width="11px" height="19px" viewBox="0 0 11 19" version="1.1" xmlns="http://www.w3.org/2000/svg" xmlns:xlink="http://www.w3.org/1999/xlink">
    <!-- Generator: Sketch 55.2 (78181) - https://sketchapp.com -->
    <title>Shape</title>
    <desc>Created with Sketch.</desc>
    <g id="Symbols" stroke="none" stroke-width="1" fill="none" fill-rule="evenodd">
        <g id="header-标准" transform="translate(-781.000000, -28.000000)" fill="#FF3162">
            <g id="header" transform="translate(74.000000, 0.000000)">
                <path d="M713.069836,43.1802448 C712.974526,43.7868916 712.910045,44.422861 712.780011,45.034818 C712.580989,45.8631961 712.602023,46.8050147 711.262811,46.9734639 C709.888357,47.1473884 707.947073,46.4496833 707.315443,45.3695849 C707.257173,45.1913587 707.136547,44.8687884 707.10478,44.5483231 C706.644392,39.8513943 707.694907,35.5555791 710.380182,31.7214316 C710.982469,30.8356455 711.689563,29.9982832 712.481139,29.1542233 C713.894579,27.6641063 715.830446,27.6290477 717.465093,28.9780996 C717.741993,29.2278375 717.936137,29.5053012 717.993219,29.8468912 C718.120256,30.695902 716.43026,33.7537571 715.61993,34.1737505 C714.999776,34.4944583 714.43203,34.2827427 713.918045,34.0351854 C713.278962,33.7480299 712.766305,33.7701376 712.312331,34.013788 C712.07316,34.1360893 711.850446,34.3259211 711.638427,34.5545924 C710.289218,36.068878 709.799397,37.8002236 709.95502,39.6857003 C710.004305,40.3656216 710.356644,40.8835319 711.232843,40.9627837 C712.780916,41.0973175 713.225493,41.9506192 713.069836,43.1802448 Z" id="Shape"></path>
            </g>
        </g>
    </g>
</svg>