<?xml version="1.0" encoding="UTF-8"?>
<svg width="13px" height="26px" viewBox="0 0 13 26" version="1.1" xmlns="http://www.w3.org/2000/svg" xmlns:xlink="http://www.w3.org/1999/xlink">
    <!-- Generator: Sketch 50.2 (55047) - http://www.bohemiancoding.com/sketch -->
    <title>Shape</title>
    <desc>Created with Sketch.</desc>
    <defs></defs>
    <g id="Symbols" stroke="none" stroke-width="1" fill="none" fill-rule="evenodd">
        <g id="header-移动端" transform="translate(-291.000000, -28.000000)" fill="#10384F">
            <g id="header">
                <path d="M304.526858,43.9907294 C303.218077,43.0973246 302.019189,43.02399 301.052775,44.474493 C300.502278,45.2936005 299.731219,45.3307054 298.936334,44.9705956 C296.722086,43.9907294 295.021647,42.4650541 294.018717,40.2197718 C293.871619,39.8725262 293.774071,39.5380573 293.761554,39.2279166 C293.724779,38.6323133 293.969425,38.1118825 294.630333,37.6523597 C295.180658,37.292775 295.718725,36.8584554 295.682209,36.0521246 C295.633435,34.9979611 293.064044,31.4873502 292.03703,31.1024746 C291.620682,30.9535301 291.204766,30.9787334 290.776678,31.1024746 C288.39116,31.9082804 287.412574,33.8443847 288.354385,36.1386734 C288.892625,37.4292929 289.467725,38.6323133 290.152717,39.760774 C293.076561,44.7227631 297.382389,48.3452137 302.93657,50.7142373 C303.315711,50.8755209 303.743972,50.9501682 303.976187,50.9996998 C305.52996,51.024378 307.340118,49.5235559 307.866358,48.0593137 C308.380254,46.6332264 307.304034,46.0876798 306.471857,45.3926635 C305.848155,44.8960358 305.162817,44.4498147 304.526858,43.9907294 Z" id="Shape" transform="translate(298.000000, 41.000000) rotate(62.000000) translate(-298.000000, -41.000000) "></path>
            </g>
        </g>
    </g>
</svg>